<mxfile host="app.diagrams.net" modified="2023-02-08T09:44:05.112Z" agent="5.0 (Windows NT 10.0; Win64; x64) AppleWebKit/537.36 (KHTML, like Gecko) Chrome/109.0.0.0 Safari/537.36 Edg/109.0.1518.69" etag="xaLzweP_WN6zN1F4RAJ2" version="20.8.18" type="github" pages="10">
  <diagram id="h7waP5HmgFzoro81WAwj" name="Pagina-10">
    <mxGraphModel dx="2027" dy="1124" grid="1" gridSize="10" guides="1" tooltips="1" connect="1" arrows="1" fold="1" page="1" pageScale="1" pageWidth="827" pageHeight="1169" math="0" shadow="0">
      <root>
        <mxCell id="0" />
        <mxCell id="1" parent="0" />
        <mxCell id="7mNE65pj7KRdnU9uUtSb-1" value="&lt;h1&gt;Principes&lt;/h1&gt;&lt;p&gt;Ingestions Framework&lt;/p&gt;&lt;p&gt;- alles kapot automatiseren&lt;/p&gt;&lt;p&gt;&lt;span style=&quot;white-space: pre;&quot;&gt;	&lt;/span&gt;- aanmaken tabel/view structuren&lt;/p&gt;&lt;p&gt;&lt;span style=&quot;white-space: pre;&quot;&gt;	&lt;/span&gt;- monitoring&lt;/p&gt;&lt;p&gt;&lt;span style=&quot;white-space: pre;&quot;&gt;	&lt;/span&gt;- alerting&lt;/p&gt;&lt;p&gt;&lt;span style=&quot;white-space: pre;&quot;&gt;	&lt;/span&gt;- logging&lt;/p&gt;&lt;p&gt;- Opnemen van nieuwe bronnen&lt;/p&gt;&lt;p&gt;&lt;span style=&quot;white-space: pre;&quot;&gt;	&lt;/span&gt;- applicatie bronnen&lt;/p&gt;&lt;p&gt;&lt;span style=&quot;white-space: pre;&quot;&gt;	&lt;/span&gt;- ontvangen dataset. met terugkerend&amp;nbsp;&lt;/p&gt;" style="text;html=1;strokeColor=none;fillColor=none;spacing=5;spacingTop=-20;whiteSpace=wrap;overflow=hidden;rounded=0;" parent="1" vertex="1">
          <mxGeometry x="110" y="70" width="560" height="300" as="geometry" />
        </mxCell>
      </root>
    </mxGraphModel>
  </diagram>
  <diagram id="bG41ESEhryDgQQWOB5iJ" name="DI4DIM Proces">
    <mxGraphModel dx="2027" dy="1124" grid="1" gridSize="10" guides="1" tooltips="1" connect="1" arrows="1" fold="1" page="1" pageScale="1" pageWidth="827" pageHeight="1169" math="0" shadow="0">
      <root>
        <mxCell id="0" />
        <mxCell id="1" parent="0" />
        <mxCell id="stYgCyat91julg6WQiPl-1" value="" style="rounded=0;whiteSpace=wrap;html=1;fontSize=13;fillColor=#f5f5f5;gradientColor=#b3b3b3;strokeColor=#666666;" parent="1" vertex="1">
          <mxGeometry x="220" y="10" width="530" height="1030" as="geometry" />
        </mxCell>
        <mxCell id="9DiSUioN3MecBo0n0iFx-1" value="Laad Data in Landing" style="rounded=1;whiteSpace=wrap;html=1;fontSize=12;" parent="1" vertex="1">
          <mxGeometry x="260" y="130" width="350" height="40" as="geometry" />
        </mxCell>
        <mxCell id="9DiSUioN3MecBo0n0iFx-2" value="Check Data of deze beschikbaar is in DIMEDA&lt;br&gt;(Data Ingestions MEtaDAta" style="rounded=1;whiteSpace=wrap;html=1;fontSize=12;" parent="1" vertex="1">
          <mxGeometry x="260" y="190" width="350" height="50" as="geometry" />
        </mxCell>
        <mxCell id="9DiSUioN3MecBo0n0iFx-3" value="Tabel metadata is beschikbaar" style="rhombus;whiteSpace=wrap;html=1;fontSize=12;" parent="1" vertex="1">
          <mxGeometry x="350" y="260" width="160" height="80" as="geometry" />
        </mxCell>
        <mxCell id="9DiSUioN3MecBo0n0iFx-4" value="Genereer DDL script&lt;br&gt;(create / alter)" style="rounded=1;whiteSpace=wrap;html=1;fontSize=12;" parent="1" vertex="1">
          <mxGeometry x="560" y="460" width="160" height="60" as="geometry" />
        </mxCell>
        <mxCell id="9DiSUioN3MecBo0n0iFx-5" value="Tabel structuur is correct aanwezig&amp;nbsp;" style="rhombus;whiteSpace=wrap;html=1;fontSize=12;" parent="1" vertex="1">
          <mxGeometry x="350" y="450" width="190" height="80" as="geometry" />
        </mxCell>
        <mxCell id="9DiSUioN3MecBo0n0iFx-6" value="Controleer metadata van tabel gelijk is aan DIMEDA" style="rounded=1;whiteSpace=wrap;html=1;fontSize=12;" parent="1" vertex="1">
          <mxGeometry x="270" y="360" width="350" height="60" as="geometry" />
        </mxCell>
        <mxCell id="9DiSUioN3MecBo0n0iFx-7" value="Voor de indentificerende tabellen&amp;nbsp;&lt;br&gt;genereer de DIMMaskeringConversie" style="rounded=1;whiteSpace=wrap;html=1;fontSize=12;" parent="1" vertex="1">
          <mxGeometry x="330" y="550" width="230" height="60" as="geometry" />
        </mxCell>
        <mxCell id="KyZP9tmZvahoFTga_4mg-1" value="Sla Logging op&lt;br&gt;DIMEDALOG&lt;br&gt;omgeving&lt;br&gt;&lt;br&gt;&lt;br&gt;" style="rounded=1;whiteSpace=wrap;html=1;fontSize=12;fillColor=#fff2cc;strokeColor=#d6b656;" parent="1" vertex="1">
          <mxGeometry x="40" y="115" width="120" height="940" as="geometry" />
        </mxCell>
        <mxCell id="KyZP9tmZvahoFTga_4mg-2" value="Laad data in staging UIT (identiek aan Historie) =&amp;gt; data is klaar voor merge met bron laag (zonder administratieve tijdslijnen)" style="rounded=1;whiteSpace=wrap;html=1;fontSize=12;" parent="1" vertex="1">
          <mxGeometry x="330" y="640" width="230" height="60" as="geometry" />
        </mxCell>
        <mxCell id="pB9pAwWvSKOWZ8W2AGKw-1" value="Laad data naar Bron laag&lt;br&gt;(toevoegen van administratieve tijdslijnen" style="rounded=1;whiteSpace=wrap;html=1;fontSize=12;" parent="1" vertex="1">
          <mxGeometry x="330" y="780" width="230" height="60" as="geometry" />
        </mxCell>
        <mxCell id="SJS1QXyB0e22nyj5-dCy-1" value="Data Kwaliteits Controle uit Staging UIT" style="rounded=1;whiteSpace=wrap;html=1;fontSize=12;" parent="1" vertex="1">
          <mxGeometry x="330" y="710" width="230" height="60" as="geometry" />
        </mxCell>
        <mxCell id="SJS1QXyB0e22nyj5-dCy-2" value="DML proces starten&lt;br&gt;(opschonen van de bron laag) (kan ook op basis van timeschedule.." style="rounded=1;whiteSpace=wrap;html=1;fontSize=12;" parent="1" vertex="1">
          <mxGeometry x="330" y="940" width="230" height="60" as="geometry" />
        </mxCell>
        <mxCell id="stYgCyat91julg6WQiPl-2" value="" style="shape=flexArrow;endArrow=classic;html=1;rounded=0;fontSize=13;entryX=1;entryY=0.5;entryDx=0;entryDy=0;exitX=-0.006;exitY=0.559;exitDx=0;exitDy=0;exitPerimeter=0;fillColor=#fff2cc;strokeColor=#d6b656;strokeWidth=4;" parent="1" source="stYgCyat91julg6WQiPl-1" target="KyZP9tmZvahoFTga_4mg-1" edge="1">
          <mxGeometry width="50" height="50" relative="1" as="geometry">
            <mxPoint x="390" y="520" as="sourcePoint" />
            <mxPoint x="440" y="470" as="targetPoint" />
          </mxGeometry>
        </mxCell>
        <mxCell id="stYgCyat91julg6WQiPl-3" value="" style="shape=cylinder3;whiteSpace=wrap;html=1;boundedLbl=1;backgroundOutline=1;size=15;fontSize=13;" parent="1" vertex="1">
          <mxGeometry x="70" y="620" width="60" height="80" as="geometry" />
        </mxCell>
        <mxCell id="aylfhLIQkeVDFTXzJIFu-2" value="" style="edgeStyle=orthogonalEdgeStyle;rounded=0;orthogonalLoop=1;jettySize=auto;html=1;strokeWidth=4;fontSize=13;entryX=0.5;entryY=0;entryDx=0;entryDy=0;" parent="1" source="aylfhLIQkeVDFTXzJIFu-1" target="9DiSUioN3MecBo0n0iFx-1" edge="1">
          <mxGeometry relative="1" as="geometry" />
        </mxCell>
        <mxCell id="aylfhLIQkeVDFTXzJIFu-1" value="&quot;TRIGGERBASED&quot;&amp;nbsp;&amp;nbsp;&lt;br&gt;- bestand wordt geplaatst op filesysteem&lt;br&gt;tabel wordt gevuld in oracle&amp;nbsp; &amp;nbsp;(&#39;trigger on Insert&quot; genereert API call naar Airflow?)" style="rounded=1;whiteSpace=wrap;html=1;fontSize=12;" parent="1" vertex="1">
          <mxGeometry x="260" y="30" width="350" height="70" as="geometry" />
        </mxCell>
      </root>
    </mxGraphModel>
  </diagram>
  <diagram name="DI4DIM" id="LzgwJFeMqMOO9BsqS2BH">
    <mxGraphModel dx="2027" dy="2293" grid="1" gridSize="10" guides="1" tooltips="1" connect="1" arrows="1" fold="1" page="1" pageScale="1" pageWidth="827" pageHeight="1169" math="0" shadow="0">
      <root>
        <mxCell id="0" />
        <mxCell id="1" parent="0" />
        <mxCell id="ZCaT9DCfURiBYN1MQ1kg-7" value="Landing" style="rounded=0;whiteSpace=wrap;html=1;verticalAlign=top;" parent="1" vertex="1">
          <mxGeometry x="200" y="-830" width="190" height="370" as="geometry" />
        </mxCell>
        <mxCell id="ZCaT9DCfURiBYN1MQ1kg-3" value="Landing" style="shape=cylinder3;whiteSpace=wrap;html=1;boundedLbl=1;backgroundOutline=1;size=15;" parent="1" vertex="1">
          <mxGeometry x="242.5" y="-780" width="115" height="80" as="geometry" />
        </mxCell>
        <mxCell id="ZCaT9DCfURiBYN1MQ1kg-6" value="File Landing" style="rounded=0;whiteSpace=wrap;html=1;" parent="1" vertex="1">
          <mxGeometry x="242.5" y="-660" width="117.5" height="60" as="geometry" />
        </mxCell>
        <mxCell id="ZCaT9DCfURiBYN1MQ1kg-8" value="Bron database" style="shape=cylinder3;whiteSpace=wrap;html=1;boundedLbl=1;backgroundOutline=1;size=15;" parent="1" vertex="1">
          <mxGeometry x="50" y="-780" width="120" height="80" as="geometry" />
        </mxCell>
        <mxCell id="ZCaT9DCfURiBYN1MQ1kg-9" value="Bron&amp;nbsp;" style="rounded=0;whiteSpace=wrap;html=1;" parent="1" vertex="1">
          <mxGeometry x="50" y="-660" width="120" height="60" as="geometry" />
        </mxCell>
        <mxCell id="ZCaT9DCfURiBYN1MQ1kg-11" value="Staging&amp;nbsp;" style="rounded=0;whiteSpace=wrap;html=1;verticalAlign=top;" parent="1" vertex="1">
          <mxGeometry x="450" y="-830" width="340" height="370" as="geometry" />
        </mxCell>
        <mxCell id="ZCaT9DCfURiBYN1MQ1kg-12" value="Bron laag" style="rounded=0;whiteSpace=wrap;html=1;verticalAlign=top;" parent="1" vertex="1">
          <mxGeometry x="820" y="-830" width="160" height="370" as="geometry" />
        </mxCell>
        <mxCell id="ZCaT9DCfURiBYN1MQ1kg-16" value="" style="verticalLabelPosition=bottom;verticalAlign=top;html=1;shape=mxgraph.basic.partConcEllipse;startAngle=0.25;endAngle=0.11119516464413805;arcWidth=0.5;fillColor=#fff2cc;strokeColor=#d6b656;" parent="1" vertex="1">
          <mxGeometry x="180" y="-765" width="50" height="50" as="geometry" />
        </mxCell>
        <mxCell id="ZCaT9DCfURiBYN1MQ1kg-17" value="" style="verticalLabelPosition=bottom;verticalAlign=top;html=1;shape=mxgraph.basic.partConcEllipse;startAngle=0.25;endAngle=0.11119516464413805;arcWidth=0.5;" parent="1" vertex="1">
          <mxGeometry x="180" y="-655" width="50" height="50" as="geometry" />
        </mxCell>
        <mxCell id="ZCaT9DCfURiBYN1MQ1kg-18" value="Ontvang data binnen de muren van DIM.&lt;br&gt;Check of data verwacht wordt" style="shape=callout;whiteSpace=wrap;html=1;perimeter=calloutPerimeter;position2=0.54;base=20;size=90;position=0.33;fillColor=#d5e8d4;strokeColor=#82b366;" parent="1" vertex="1">
          <mxGeometry x="40" y="-900" width="280" height="140" as="geometry" />
        </mxCell>
        <mxCell id="ZCaT9DCfURiBYN1MQ1kg-23" value="" style="shape=cylinder3;whiteSpace=wrap;html=1;boundedLbl=1;backgroundOutline=1;size=8;strokeColor=#d6b656;fillColor=#fff2cc;" parent="1" vertex="1">
          <mxGeometry x="200" y="-730" width="30" height="40" as="geometry" />
        </mxCell>
        <mxCell id="JETTnSLS_zr7z7Y_-7eO-1" value="" style="verticalLabelPosition=bottom;verticalAlign=top;html=1;shape=mxgraph.basic.partConcEllipse;startAngle=0.25;endAngle=0.11119516464413805;arcWidth=0.5;fillColor=#fff2cc;strokeColor=#d6b656;" parent="1" vertex="1">
          <mxGeometry x="390" y="-775" width="50" height="50" as="geometry" />
        </mxCell>
        <mxCell id="JETTnSLS_zr7z7Y_-7eO-2" value="" style="shape=cylinder3;whiteSpace=wrap;html=1;boundedLbl=1;backgroundOutline=1;size=8;strokeColor=#d6b656;fillColor=#fff2cc;" parent="1" vertex="1">
          <mxGeometry x="410" y="-740" width="30" height="40" as="geometry" />
        </mxCell>
        <mxCell id="JETTnSLS_zr7z7Y_-7eO-7" value="Staging UIT" style="shape=cylinder3;whiteSpace=wrap;html=1;boundedLbl=1;backgroundOutline=1;size=15;" parent="1" vertex="1">
          <mxGeometry x="630" y="-780" width="140" height="150" as="geometry" />
        </mxCell>
        <mxCell id="JETTnSLS_zr7z7Y_-7eO-8" value="Bron laag met historie" style="shape=cylinder3;whiteSpace=wrap;html=1;boundedLbl=1;backgroundOutline=1;size=15;" parent="1" vertex="1">
          <mxGeometry x="845" y="-780" width="115" height="140" as="geometry" />
        </mxCell>
        <mxCell id="JETTnSLS_zr7z7Y_-7eO-9" value="DIMEDA&lt;br&gt;(Dims Metadata)&lt;br&gt;&lt;br&gt;RLO op tabel&lt;br&gt;Bron lijst&lt;br&gt;&#39;schedule&#39;&lt;br&gt;" style="shape=cylinder3;whiteSpace=wrap;html=1;boundedLbl=1;backgroundOutline=1;size=15;verticalAlign=top;" parent="1" vertex="1">
          <mxGeometry x="128.75" y="-348" width="175" height="130" as="geometry" />
        </mxCell>
        <mxCell id="JETTnSLS_zr7z7Y_-7eO-10" value="DIMEDALOG&lt;br&gt;DIMs metadata Log" style="shape=cylinder3;whiteSpace=wrap;html=1;boundedLbl=1;backgroundOutline=1;size=15;verticalAlign=top;" parent="1" vertex="1">
          <mxGeometry x="341.25" y="-348" width="175" height="130" as="geometry" />
        </mxCell>
        <mxCell id="JETTnSLS_zr7z7Y_-7eO-13" value="Monitoring&lt;br&gt;(elasticSearch" style="rounded=1;whiteSpace=wrap;html=1;strokeColor=#666666;fillColor=#f5f5f5;fontColor=#333333;" parent="1" vertex="1">
          <mxGeometry x="581.25" y="-278" width="120" height="60" as="geometry" />
        </mxCell>
        <mxCell id="JETTnSLS_zr7z7Y_-7eO-14" value="Data Ingestions voor Data Integratie Magazijn&lt;br style=&quot;font-size: 35px;&quot;&gt;Concept Design" style="rounded=0;whiteSpace=wrap;html=1;verticalAlign=middle;fillColor=#f0a30a;fontColor=#000000;strokeColor=#BD7000;fontSize=35;" parent="1" vertex="1">
          <mxGeometry x="63.75" y="-1150" width="1566.25" height="90" as="geometry" />
        </mxCell>
        <mxCell id="JETTnSLS_zr7z7Y_-7eO-16" value="" style="shape=flexArrow;endArrow=classic;html=1;rounded=0;fillColor=#dae8fc;strokeColor=#6c8ebf;entryX=-0.031;entryY=0.397;entryDx=0;entryDy=0;entryPerimeter=0;" parent="1" edge="1">
          <mxGeometry width="50" height="50" relative="1" as="geometry">
            <mxPoint x="370" y="-630.5" as="sourcePoint" />
            <mxPoint x="445.03999999999996" y="-683.1100000000001" as="targetPoint" />
          </mxGeometry>
        </mxCell>
        <mxCell id="JETTnSLS_zr7z7Y_-7eO-17" value="" style="verticalLabelPosition=bottom;verticalAlign=top;html=1;shape=mxgraph.basic.partConcEllipse;startAngle=0.25;endAngle=0.11119516464413805;arcWidth=0.5;fillColor=#fff2cc;strokeColor=#d6b656;" parent="1" vertex="1">
          <mxGeometry x="374" y="-700" width="50" height="50" as="geometry" />
        </mxCell>
        <mxCell id="JETTnSLS_zr7z7Y_-7eO-18" value="" style="shape=cylinder3;whiteSpace=wrap;html=1;boundedLbl=1;backgroundOutline=1;size=8;strokeColor=#d6b656;fillColor=#fff2cc;" parent="1" vertex="1">
          <mxGeometry x="394" y="-665" width="30" height="40" as="geometry" />
        </mxCell>
        <mxCell id="JETTnSLS_zr7z7Y_-7eO-19" value="Archief" style="rounded=0;whiteSpace=wrap;html=1;verticalAlign=top;" parent="1" vertex="1">
          <mxGeometry x="200" y="-450" width="190" height="70" as="geometry" />
        </mxCell>
        <mxCell id="JETTnSLS_zr7z7Y_-7eO-22" value="&quot;Airflow&quot; like Scheduling" style="shape=cube;whiteSpace=wrap;html=1;boundedLbl=1;backgroundOutline=1;darkOpacity=0.05;darkOpacity2=0.1;strokeColor=#6c8ebf;fillColor=#dae8fc;" parent="1" vertex="1">
          <mxGeometry x="275" y="-955" width="900" height="80" as="geometry" />
        </mxCell>
        <mxCell id="j9lFzfxDqFEv3JNe8bec-1" value="" style="shape=flexArrow;endArrow=classic;html=1;rounded=0;fillColor=#dae8fc;strokeColor=#6c8ebf;" parent="1" edge="1">
          <mxGeometry width="50" height="50" relative="1" as="geometry">
            <mxPoint x="785" y="-720" as="sourcePoint" />
            <mxPoint x="855" y="-720" as="targetPoint" />
          </mxGeometry>
        </mxCell>
        <mxCell id="j9lFzfxDqFEv3JNe8bec-2" value="" style="verticalLabelPosition=bottom;verticalAlign=top;html=1;shape=mxgraph.basic.partConcEllipse;startAngle=0.25;endAngle=0.11119516464413805;arcWidth=0.5;fillColor=#fff2cc;strokeColor=#d6b656;" parent="1" vertex="1">
          <mxGeometry x="775" y="-755" width="50" height="50" as="geometry" />
        </mxCell>
        <mxCell id="j9lFzfxDqFEv3JNe8bec-3" value="" style="shape=cylinder3;whiteSpace=wrap;html=1;boundedLbl=1;backgroundOutline=1;size=8;strokeColor=#d6b656;fillColor=#fff2cc;" parent="1" vertex="1">
          <mxGeometry x="795" y="-720" width="30" height="40" as="geometry" />
        </mxCell>
        <mxCell id="j9lFzfxDqFEv3JNe8bec-4" value="OKV laag" style="rounded=0;whiteSpace=wrap;html=1;verticalAlign=top;" parent="1" vertex="1">
          <mxGeometry x="1010" y="-830" width="160" height="370" as="geometry" />
        </mxCell>
        <mxCell id="j9lFzfxDqFEv3JNe8bec-5" value="OKV schemas" style="shape=cylinder3;whiteSpace=wrap;html=1;boundedLbl=1;backgroundOutline=1;size=15;" parent="1" vertex="1">
          <mxGeometry x="1032.5" y="-760" width="115" height="80" as="geometry" />
        </mxCell>
        <mxCell id="F7gKjAizY6-8Hxz1coRo-1" value="" style="shape=flexArrow;endArrow=classic;html=1;rounded=0;fillColor=#dae8fc;strokeColor=#6c8ebf;" parent="1" edge="1">
          <mxGeometry width="50" height="50" relative="1" as="geometry">
            <mxPoint x="1040" y="-395" as="sourcePoint" />
            <mxPoint x="1110" y="-395" as="targetPoint" />
          </mxGeometry>
        </mxCell>
        <mxCell id="F7gKjAizY6-8Hxz1coRo-2" value="" style="verticalLabelPosition=bottom;verticalAlign=top;html=1;shape=mxgraph.basic.partConcEllipse;startAngle=0.25;endAngle=0.11119516464413805;arcWidth=0.5;fillColor=#fff2cc;strokeColor=#d6b656;" parent="1" vertex="1">
          <mxGeometry x="1030" y="-430" width="50" height="50" as="geometry" />
        </mxCell>
        <mxCell id="F7gKjAizY6-8Hxz1coRo-3" value="" style="shape=cylinder3;whiteSpace=wrap;html=1;boundedLbl=1;backgroundOutline=1;size=8;strokeColor=#d6b656;fillColor=#fff2cc;" parent="1" vertex="1">
          <mxGeometry x="1050" y="-395" width="30" height="40" as="geometry" />
        </mxCell>
        <mxCell id="F7gKjAizY6-8Hxz1coRo-4" value="" style="shape=flexArrow;endArrow=classic;html=1;rounded=0;fillColor=#dae8fc;strokeColor=#6c8ebf;" parent="1" edge="1">
          <mxGeometry width="50" height="50" relative="1" as="geometry">
            <mxPoint x="880" y="-395" as="sourcePoint" />
            <mxPoint x="950" y="-395" as="targetPoint" />
          </mxGeometry>
        </mxCell>
        <mxCell id="F7gKjAizY6-8Hxz1coRo-5" value="" style="verticalLabelPosition=bottom;verticalAlign=top;html=1;shape=mxgraph.basic.partConcEllipse;startAngle=0.25;endAngle=0.11119516464413805;arcWidth=0.5;fillColor=#fff2cc;strokeColor=#d6b656;" parent="1" vertex="1">
          <mxGeometry x="870" y="-430" width="50" height="50" as="geometry" />
        </mxCell>
        <mxCell id="F7gKjAizY6-8Hxz1coRo-6" value="" style="shape=cylinder3;whiteSpace=wrap;html=1;boundedLbl=1;backgroundOutline=1;size=8;strokeColor=#d6b656;fillColor=#fff2cc;" parent="1" vertex="1">
          <mxGeometry x="890" y="-395" width="30" height="40" as="geometry" />
        </mxCell>
        <mxCell id="F7gKjAizY6-8Hxz1coRo-7" value="" style="shape=flexArrow;endArrow=classic;html=1;rounded=0;fillColor=#dae8fc;strokeColor=#6c8ebf;" parent="1" edge="1">
          <mxGeometry width="50" height="50" relative="1" as="geometry">
            <mxPoint x="700" y="-395" as="sourcePoint" />
            <mxPoint x="770" y="-395" as="targetPoint" />
          </mxGeometry>
        </mxCell>
        <mxCell id="F7gKjAizY6-8Hxz1coRo-8" value="" style="verticalLabelPosition=bottom;verticalAlign=top;html=1;shape=mxgraph.basic.partConcEllipse;startAngle=0.25;endAngle=0.11119516464413805;arcWidth=0.5;fillColor=#fff2cc;strokeColor=#d6b656;" parent="1" vertex="1">
          <mxGeometry x="690" y="-430" width="50" height="50" as="geometry" />
        </mxCell>
        <mxCell id="F7gKjAizY6-8Hxz1coRo-9" value="" style="shape=cylinder3;whiteSpace=wrap;html=1;boundedLbl=1;backgroundOutline=1;size=8;strokeColor=#d6b656;fillColor=#fff2cc;" parent="1" vertex="1">
          <mxGeometry x="710" y="-395" width="30" height="40" as="geometry" />
        </mxCell>
        <mxCell id="F7gKjAizY6-8Hxz1coRo-10" value="" style="shape=flexArrow;endArrow=classic;html=1;rounded=0;fillColor=#dae8fc;strokeColor=#6c8ebf;" parent="1" edge="1">
          <mxGeometry width="50" height="50" relative="1" as="geometry">
            <mxPoint x="511.25" y="-395" as="sourcePoint" />
            <mxPoint x="581.25" y="-395" as="targetPoint" />
          </mxGeometry>
        </mxCell>
        <mxCell id="F7gKjAizY6-8Hxz1coRo-11" value="" style="verticalLabelPosition=bottom;verticalAlign=top;html=1;shape=mxgraph.basic.partConcEllipse;startAngle=0.25;endAngle=0.11119516464413805;arcWidth=0.5;fillColor=#fff2cc;strokeColor=#d6b656;" parent="1" vertex="1">
          <mxGeometry x="501.25" y="-430" width="50" height="50" as="geometry" />
        </mxCell>
        <mxCell id="F7gKjAizY6-8Hxz1coRo-12" value="" style="shape=cylinder3;whiteSpace=wrap;html=1;boundedLbl=1;backgroundOutline=1;size=8;strokeColor=#d6b656;fillColor=#fff2cc;" parent="1" vertex="1">
          <mxGeometry x="521.25" y="-395" width="30" height="40" as="geometry" />
        </mxCell>
        <mxCell id="F7gKjAizY6-8Hxz1coRo-13" value="DDL generation gebaseerd op DIMEDA.&lt;br&gt;Inclusief Schema on Drift" style="shape=callout;whiteSpace=wrap;html=1;perimeter=calloutPerimeter;position2=0.33;base=28;size=50;position=0;" parent="1" vertex="1">
          <mxGeometry x="470" y="-590" width="120" height="160" as="geometry" />
        </mxCell>
        <mxCell id="F7gKjAizY6-8Hxz1coRo-14" value="DDL generation gebaseerd op DIMEDA.&lt;br style=&quot;border-color: var(--border-color);&quot;&gt;Inclusief Schema on Drift" style="shape=callout;whiteSpace=wrap;html=1;perimeter=calloutPerimeter;position2=0.33;base=28;size=50;position=0;" parent="1" vertex="1">
          <mxGeometry x="665" y="-590" width="120" height="160" as="geometry" />
        </mxCell>
        <mxCell id="F7gKjAizY6-8Hxz1coRo-15" value="DDL generation gebaseerd op DIMEDA.&lt;br style=&quot;border-color: var(--border-color);&quot;&gt;Inclusief Schema on Drift" style="shape=callout;whiteSpace=wrap;html=1;perimeter=calloutPerimeter;position2=0.33;base=28;size=50;position=0;" parent="1" vertex="1">
          <mxGeometry x="845" y="-590" width="120" height="160" as="geometry" />
        </mxCell>
        <mxCell id="F7gKjAizY6-8Hxz1coRo-16" value="DDL generation gebaseerd op DIMEDA.&lt;br style=&quot;border-color: var(--border-color);&quot;&gt;Inclusief Schema on Drift" style="shape=callout;whiteSpace=wrap;html=1;perimeter=calloutPerimeter;position2=0.33;base=28;size=50;position=0;" parent="1" vertex="1">
          <mxGeometry x="1020" y="-590" width="120" height="160" as="geometry" />
        </mxCell>
        <mxCell id="F7gKjAizY6-8Hxz1coRo-17" value="Alerting" style="rounded=1;whiteSpace=wrap;html=1;strokeColor=#666666;fillColor=#f5f5f5;fontColor=#333333;" parent="1" vertex="1">
          <mxGeometry x="581.25" y="-348" width="120" height="60" as="geometry" />
        </mxCell>
        <mxCell id="F7gKjAizY6-8Hxz1coRo-18" value="ServicesDesk integration" style="rounded=1;whiteSpace=wrap;html=1;strokeColor=#666666;fillColor=#f5f5f5;fontColor=#333333;" parent="1" vertex="1">
          <mxGeometry x="770" y="-343" width="120" height="60" as="geometry" />
        </mxCell>
        <mxCell id="F7gKjAizY6-8Hxz1coRo-19" value="C2M&amp;nbsp;&lt;br&gt;Gemaskeerder indentificeerbare gegevens&lt;br&gt;(heet nu DIM_&amp;lt;naamvergeten&amp;gt;)" style="shape=cylinder3;whiteSpace=wrap;html=1;boundedLbl=1;backgroundOutline=1;size=15;verticalAlign=top;fillColor=#e1d5e7;strokeColor=#9673a6;" parent="1" vertex="1">
          <mxGeometry x="295" y="-1050" width="175" height="105" as="geometry" />
        </mxCell>
        <mxCell id="F7gKjAizY6-8Hxz1coRo-20" value="C2M&lt;br&gt;Convert2Markering" style="shape=callout;whiteSpace=wrap;html=1;perimeter=calloutPerimeter;position2=0.33;base=20;size=120;position=0;fillColor=#d5e8d4;strokeColor=#82b366;" parent="1" vertex="1">
          <mxGeometry x="380" y="-905" width="121.25" height="175" as="geometry" />
        </mxCell>
        <mxCell id="F7gKjAizY6-8Hxz1coRo-21" value="Merge met Historie&lt;br&gt;" style="shape=callout;whiteSpace=wrap;html=1;perimeter=calloutPerimeter;position2=0.33;base=28;size=130;position=0;fillColor=#d5e8d4;strokeColor=#82b366;" parent="1" vertex="1">
          <mxGeometry x="760" y="-875" width="120" height="155" as="geometry" />
        </mxCell>
        <mxCell id="JETTnSLS_zr7z7Y_-7eO-5" value="" style="shape=flexArrow;endArrow=classic;html=1;rounded=0;fillColor=#dae8fc;strokeColor=#6c8ebf;" parent="1" edge="1">
          <mxGeometry width="50" height="50" relative="1" as="geometry">
            <mxPoint x="550" y="-747.5" as="sourcePoint" />
            <mxPoint x="620" y="-747.5" as="targetPoint" />
          </mxGeometry>
        </mxCell>
        <mxCell id="JETTnSLS_zr7z7Y_-7eO-20" value="" style="verticalLabelPosition=bottom;verticalAlign=top;html=1;shape=mxgraph.basic.partConcEllipse;startAngle=0.25;endAngle=0.11119516464413805;arcWidth=0.5;fillColor=#fff2cc;strokeColor=#d6b656;" parent="1" vertex="1">
          <mxGeometry x="540" y="-782.5" width="50" height="50" as="geometry" />
        </mxCell>
        <mxCell id="JETTnSLS_zr7z7Y_-7eO-21" value="" style="shape=cylinder3;whiteSpace=wrap;html=1;boundedLbl=1;backgroundOutline=1;size=8;strokeColor=#d6b656;fillColor=#fff2cc;" parent="1" vertex="1">
          <mxGeometry x="560" y="-747.5" width="30" height="40" as="geometry" />
        </mxCell>
        <mxCell id="F7gKjAizY6-8Hxz1coRo-26" value="Tabel klaar voor merge met historie" style="shape=callout;whiteSpace=wrap;html=1;perimeter=calloutPerimeter;position2=0.33;base=20;size=110;position=0.04;fillColor=#d5e8d4;strokeColor=#82b366;" parent="1" vertex="1">
          <mxGeometry x="530" y="-892.5" width="120" height="160" as="geometry" />
        </mxCell>
        <mxCell id="F7gKjAizY6-8Hxz1coRo-27" value="Prepareren van Tabel &lt;br&gt;en view structuur" style="shape=flexArrow;endArrow=classic;html=1;rounded=0;" parent="1" edge="1">
          <mxGeometry width="50" height="50" relative="1" as="geometry">
            <mxPoint x="466" y="-337" as="sourcePoint" />
            <mxPoint x="496" y="-387" as="targetPoint" />
          </mxGeometry>
        </mxCell>
        <mxCell id="F7gKjAizY6-8Hxz1coRo-28" value="" style="shape=flexArrow;endArrow=classic;html=1;rounded=0;" parent="1" edge="1">
          <mxGeometry width="50" height="50" relative="1" as="geometry">
            <mxPoint x="600" y="-370" as="sourcePoint" />
            <mxPoint x="680" y="-370" as="targetPoint" />
          </mxGeometry>
        </mxCell>
        <mxCell id="F7gKjAizY6-8Hxz1coRo-29" value="" style="shape=flexArrow;endArrow=classic;html=1;rounded=0;" parent="1" edge="1">
          <mxGeometry width="50" height="50" relative="1" as="geometry">
            <mxPoint x="785" y="-375.5" as="sourcePoint" />
            <mxPoint x="865" y="-375.5" as="targetPoint" />
          </mxGeometry>
        </mxCell>
        <mxCell id="F7gKjAizY6-8Hxz1coRo-30" value="" style="shape=flexArrow;endArrow=classic;html=1;rounded=0;" parent="1" edge="1">
          <mxGeometry width="50" height="50" relative="1" as="geometry">
            <mxPoint x="950" y="-370" as="sourcePoint" />
            <mxPoint x="1030" y="-370" as="targetPoint" />
          </mxGeometry>
        </mxCell>
        <mxCell id="rXrCp7MK7jBi28Y-bSlJ-1" value="" style="shape=flexArrow;endArrow=classic;html=1;rounded=0;" parent="1" edge="1">
          <mxGeometry width="50" height="50" relative="1" as="geometry">
            <mxPoint x="501.25" y="-308" as="sourcePoint" />
            <mxPoint x="581.25" y="-308" as="targetPoint" />
          </mxGeometry>
        </mxCell>
        <mxCell id="rXrCp7MK7jBi28Y-bSlJ-2" value="" style="shape=flexArrow;endArrow=classic;html=1;rounded=0;" parent="1" edge="1">
          <mxGeometry width="50" height="50" relative="1" as="geometry">
            <mxPoint x="510" y="-253" as="sourcePoint" />
            <mxPoint x="590" y="-253" as="targetPoint" />
          </mxGeometry>
        </mxCell>
        <mxCell id="rXrCp7MK7jBi28Y-bSlJ-3" value="" style="shape=flexArrow;endArrow=classic;html=1;rounded=0;" parent="1" edge="1">
          <mxGeometry width="50" height="50" relative="1" as="geometry">
            <mxPoint x="695" y="-308" as="sourcePoint" />
            <mxPoint x="775" y="-308" as="targetPoint" />
          </mxGeometry>
        </mxCell>
        <mxCell id="rXrCp7MK7jBi28Y-bSlJ-4" value="&lt;h1&gt;Highlights op DI4DIM&lt;/h1&gt;&lt;p&gt;wat is er verandert&lt;/p&gt;&lt;p&gt;&lt;span style=&quot;background-color: initial;&quot;&gt;- Aantal tabellen is gereduceer. (van 10 naar 4)&amp;nbsp;&lt;/span&gt;&lt;br&gt;&lt;/p&gt;&lt;p&gt;&lt;span style=&quot;background-color: initial;&quot;&gt;Atomaire verwerking zit op Tabel niveau en niet op &#39;Bron&#39; niveau&#39;, Dit verhoogt de snelheid naar de klant. Je kunt eerder starten met analyseren. Je kunt eerder starten met ontwikkeling van dashboard.&lt;/span&gt;&lt;/p&gt;&lt;p&gt;&lt;span style=&quot;background-color: initial;&quot;&gt;Complexiteit of dat je volledig bent in verwerking is gelijkwaardig aan huidige structuur (!?)&lt;/span&gt;&lt;/p&gt;&lt;p&gt;inbouwen van Schema at drift&amp;nbsp;&lt;/p&gt;&lt;p&gt;Inbouwen van Monitoring op het proces&lt;/p&gt;&lt;p&gt;inbouwen van alering op proces&lt;/p&gt;&lt;p&gt;&lt;span style=&quot;background-color: initial;&quot;&gt;Verwachte performance winst is ongeveer factor 3 sneller (van 1 uur naar 20 minuten).&amp;nbsp;&lt;/span&gt;&lt;/p&gt;&lt;p&gt;&lt;span style=&quot;background-color: initial;&quot;&gt;Inouwen data kwaliteits check kunnen plaats vinden op &quot;staging UIT&quot;.&amp;nbsp;&lt;/span&gt;&lt;/p&gt;&lt;p&gt;&lt;span style=&quot;background-color: initial;&quot;&gt;- Alleen indentificerende tabellen&amp;nbsp;&lt;/span&gt;&lt;br&gt;&lt;/p&gt;&lt;p&gt;&lt;span style=&quot;background-color: initial;&quot;&gt;DML proces vergt andere insteek, er worden geen rijen verwijderd maar velden leeg gemaakt. Dus geen &quot;delete&quot; maar &quot;update&quot;.&amp;nbsp; Ander soorting oplossing maar niet noemenswaardig complexer.&amp;nbsp;&lt;/span&gt;&lt;br&gt;&lt;/p&gt;" style="text;html=1;strokeColor=none;fillColor=none;spacing=5;spacingTop=-20;whiteSpace=wrap;overflow=hidden;rounded=0;" parent="1" vertex="1">
          <mxGeometry x="1190" y="-390" width="430" height="370" as="geometry" />
        </mxCell>
        <mxCell id="rXrCp7MK7jBi28Y-bSlJ-5" value="&lt;h1&gt;Oude situatie&lt;/h1&gt;&lt;div&gt;&lt;font style=&quot;font-size: 13px;&quot;&gt;&lt;b&gt;# tabellen in elke laag&lt;/b&gt;&lt;/font&gt;&lt;/div&gt;&lt;div&gt;1 tabel in landing&lt;/div&gt;&lt;div&gt;1 staging in&lt;/div&gt;&lt;div&gt;4 in staging uit&lt;/div&gt;&lt;div&gt;4 in bron laag&amp;nbsp;&lt;/div&gt;&lt;div&gt;&lt;br&gt;&lt;/div&gt;&lt;div style=&quot;font-size: 14px;&quot;&gt;&lt;font style=&quot;font-size: 14px;&quot;&gt;&lt;b&gt;TOTAAL = 10&lt;/b&gt;&lt;/font&gt;&lt;/div&gt;&lt;div style=&quot;font-size: 14px;&quot;&gt;&lt;br&gt;&lt;/div&gt;&lt;div&gt;&lt;br&gt;&lt;/div&gt;" style="text;html=1;strokeColor=none;fillColor=none;spacing=5;spacingTop=-20;whiteSpace=wrap;overflow=hidden;rounded=0;" parent="1" vertex="1">
          <mxGeometry x="1200" y="-787.5" width="176" height="167.5" as="geometry" />
        </mxCell>
        <mxCell id="rXrCp7MK7jBi28Y-bSlJ-6" value="&lt;h1&gt;Nieuwe situatie&lt;/h1&gt;&lt;b style=&quot;border-color: var(--border-color); font-size: 13px;&quot;&gt;# tabellen in elke laag&lt;/b&gt;&lt;div&gt;1 tabel in landing&lt;/div&gt;&lt;div&gt;&lt;span style=&quot;background-color: initial;&quot;&gt;1 in staging IN&lt;/span&gt;&lt;/div&gt;&lt;div&gt;&lt;span style=&quot;background-color: initial;&quot;&gt;1 in staging uit&lt;/span&gt;&lt;br&gt;&lt;/div&gt;&lt;div&gt;1 in bron laag&amp;nbsp;&lt;/div&gt;&lt;div&gt;&lt;br&gt;&lt;/div&gt;&lt;div&gt;&lt;font style=&quot;font-size: 14px;&quot;&gt;&lt;b&gt;TOTAAL = 4&lt;/b&gt;&lt;/font&gt;&lt;/div&gt;&lt;div&gt;&lt;br&gt;&lt;/div&gt;&lt;div&gt;&lt;/div&gt;*(alleen in geval van identificeren data in tabel)&lt;div&gt;&lt;br&gt;&lt;/div&gt;&lt;div&gt;&lt;br&gt;&lt;/div&gt;" style="text;html=1;strokeColor=none;fillColor=none;spacing=5;spacingTop=-20;whiteSpace=wrap;overflow=hidden;rounded=0;" parent="1" vertex="1">
          <mxGeometry x="1370" y="-785" width="260" height="195" as="geometry" />
        </mxCell>
        <mxCell id="rXrCp7MK7jBi28Y-bSlJ-7" value="DLM proces" style="shape=callout;whiteSpace=wrap;html=1;perimeter=calloutPerimeter;position2=0.15;base=28;size=120;position=0;fillColor=#d5e8d4;strokeColor=#82b366;" parent="1" vertex="1">
          <mxGeometry x="930" y="-885" width="102.5" height="185" as="geometry" />
        </mxCell>
        <mxCell id="rXrCp7MK7jBi28Y-bSlJ-8" value="" style="verticalLabelPosition=bottom;verticalAlign=top;html=1;shape=mxgraph.basic.partConcEllipse;startAngle=0.25;endAngle=0.11119516464413805;arcWidth=0.5;fillColor=#fff2cc;strokeColor=#d6b656;" parent="1" vertex="1">
          <mxGeometry x="930" y="-770" width="50" height="50" as="geometry" />
        </mxCell>
        <mxCell id="rXrCp7MK7jBi28Y-bSlJ-9" value="Data Kwaliteits Controles&lt;br&gt;(kwaliteits checks staan in DIMEDA) &amp;gt; komen mee met RLO op tabel niveau" style="shape=callout;whiteSpace=wrap;html=1;perimeter=calloutPerimeter;position2=0.17;base=15;size=195;position=0;fillColor=#d5e8d4;strokeColor=#82b366;" parent="1" vertex="1">
          <mxGeometry x="640" y="-1050" width="120" height="285" as="geometry" />
        </mxCell>
        <mxCell id="rXrCp7MK7jBi28Y-bSlJ-10" value="" style="verticalLabelPosition=bottom;verticalAlign=top;html=1;shape=mxgraph.basic.partConcEllipse;startAngle=0.25;endAngle=0.11119516464413805;arcWidth=0.5;fillColor=#fff2cc;strokeColor=#d6b656;" parent="1" vertex="1">
          <mxGeometry x="620" y="-960" width="50" height="50" as="geometry" />
        </mxCell>
        <mxCell id="rXrCp7MK7jBi28Y-bSlJ-11" value="Database &lt;br&gt;Restore ??" style="shape=cylinder3;whiteSpace=wrap;html=1;boundedLbl=1;backgroundOutline=1;size=15;" parent="1" vertex="1">
          <mxGeometry x="242.5" y="-570" width="115" height="80" as="geometry" />
        </mxCell>
        <mxCell id="rXrCp7MK7jBi28Y-bSlJ-12" value="Zelfde als &#39;regulier proces&#39;" style="shape=callout;whiteSpace=wrap;html=1;perimeter=calloutPerimeter;position2=0.98;base=40;size=30;position=0.01;fillColor=#d5e8d4;strokeColor=#82b366;" parent="1" vertex="1">
          <mxGeometry x="128.75" y="-590" width="121.88" height="80" as="geometry" />
        </mxCell>
        <mxCell id="JETTnSLS_zr7z7Y_-7eO-3" value="" style="shape=flexArrow;endArrow=classic;html=1;rounded=0;fillColor=#dae8fc;strokeColor=#6c8ebf;" parent="1" edge="1">
          <mxGeometry width="50" height="50" relative="1" as="geometry">
            <mxPoint x="360" y="-725" as="sourcePoint" />
            <mxPoint x="440" y="-725" as="targetPoint" />
          </mxGeometry>
        </mxCell>
        <mxCell id="DpJr6nDiewrfIa-oE0gw-1" value="C2M Veld" style="shape=cylinder3;whiteSpace=wrap;html=1;boundedLbl=1;backgroundOutline=1;size=15;" parent="1" vertex="1">
          <mxGeometry x="470" y="-825" width="70" height="77.5" as="geometry" />
        </mxCell>
        <mxCell id="ge4zoQ0wSeVVb9Qi8uQ8-1" value="Staging IN" style="shape=cylinder3;whiteSpace=wrap;html=1;boundedLbl=1;backgroundOutline=1;size=15;" parent="1" vertex="1">
          <mxGeometry x="466.25" y="-762.5" width="93.75" height="150" as="geometry" />
        </mxCell>
        <mxCell id="jeE6p72phvSHwrGXfFTw-1" value="Azure Devops&lt;br&gt;" style="rounded=1;whiteSpace=wrap;html=1;" parent="1" vertex="1">
          <mxGeometry x="128.75" y="-208" width="1031.25" height="60" as="geometry" />
        </mxCell>
      </root>
    </mxGraphModel>
  </diagram>
  <diagram id="IZnUCgKer8qQhaNXVYi8" name="legenda">
    <mxGraphModel dx="2058" dy="1180" grid="1" gridSize="10" guides="1" tooltips="1" connect="1" arrows="1" fold="1" page="1" pageScale="1" pageWidth="827" pageHeight="1169" math="0" shadow="0">
      <root>
        <mxCell id="0" />
        <mxCell id="1" parent="0" />
        <mxCell id="ExPoVQAmi61j5feH-11l-1" value="" style="verticalLabelPosition=bottom;verticalAlign=top;html=1;shape=mxgraph.basic.partConcEllipse;startAngle=0.25;endAngle=0.11119516464413805;arcWidth=0.5;fillColor=#fff2cc;strokeColor=#d6b656;" parent="1" vertex="1">
          <mxGeometry x="170" y="145" width="50" height="50" as="geometry" />
        </mxCell>
        <mxCell id="ExPoVQAmi61j5feH-11l-3" value="Processing" style="rounded=1;whiteSpace=wrap;html=1;" parent="1" vertex="1">
          <mxGeometry x="260" y="145" width="120" height="60" as="geometry" />
        </mxCell>
        <mxCell id="ExPoVQAmi61j5feH-11l-4" value="Processing met&amp;nbsp;queue" style="rounded=1;whiteSpace=wrap;html=1;" parent="1" vertex="1">
          <mxGeometry x="260" y="220" width="120" height="60" as="geometry" />
        </mxCell>
        <mxCell id="ExPoVQAmi61j5feH-11l-5" value="" style="verticalLabelPosition=bottom;verticalAlign=top;html=1;shape=mxgraph.basic.partConcEllipse;startAngle=0.25;endAngle=0.11119516464413805;arcWidth=0.5;fillColor=#fff2cc;strokeColor=#d6b656;" parent="1" vertex="1">
          <mxGeometry x="170" y="220" width="50" height="50" as="geometry" />
        </mxCell>
        <mxCell id="ExPoVQAmi61j5feH-11l-2" value="" style="shape=cylinder3;whiteSpace=wrap;html=1;boundedLbl=1;backgroundOutline=1;size=8;strokeColor=#d6b656;fillColor=#fff2cc;" parent="1" vertex="1">
          <mxGeometry x="200" y="250" width="30" height="40" as="geometry" />
        </mxCell>
        <mxCell id="ExPoVQAmi61j5feH-11l-6" value="Processing, Met queue wil zeggen, een &quot;wachtrij met FIFO&quot; First in First Out&quot;&lt;br&gt;Er wordt een bericht gestuurd naar een queue om iets te starten.&amp;nbsp; (binnen AWS zijn dit standaard componenten, deze moeten we opzetten of bouwen).&lt;br&gt;De wachtrij mechanisme is curriciaal voor performance verwerkingen en balancing.&amp;nbsp;" style="rounded=1;whiteSpace=wrap;html=1;" parent="1" vertex="1">
          <mxGeometry x="410" y="220" width="280" height="240" as="geometry" />
        </mxCell>
        <mxCell id="ExPoVQAmi61j5feH-11l-7" value="Trigger ontvangs proces" style="rounded=1;whiteSpace=wrap;html=1;" parent="1" vertex="1">
          <mxGeometry x="260" y="340" width="120" height="60" as="geometry" />
        </mxCell>
        <mxCell id="ExPoVQAmi61j5feH-11l-8" value="" style="verticalLabelPosition=bottom;verticalAlign=top;html=1;shape=mxgraph.basic.4_point_star_2;dx=0.8;strokeColor=#b85450;fillColor=#f8cecc;" parent="1" vertex="1">
          <mxGeometry x="185" y="340" width="60" height="50" as="geometry" />
        </mxCell>
      </root>
    </mxGraphModel>
  </diagram>
  <diagram id="FEro3Whmnm0GfA5JXwWL" name="Een Tabel in Bron laag">
    <mxGraphModel dx="2058" dy="1180" grid="1" gridSize="10" guides="1" tooltips="1" connect="1" arrows="1" fold="1" page="1" pageScale="1" pageWidth="827" pageHeight="1169" math="0" shadow="0">
      <root>
        <mxCell id="0" />
        <mxCell id="1" parent="0" />
        <mxCell id="k0QNLuaNLbzrx7ui5d-k-1" value="BRON tabel orgineel" style="shape=table;startSize=30;container=1;collapsible=1;childLayout=tableLayout;fixedRows=1;rowLines=0;fontStyle=1;align=center;resizeLast=1;fillColor=#f5f5f5;fontColor=#333333;strokeColor=#666666;" parent="1" vertex="1">
          <mxGeometry x="40" y="310" width="180" height="330" as="geometry" />
        </mxCell>
        <mxCell id="k0QNLuaNLbzrx7ui5d-k-2" value="" style="shape=tableRow;horizontal=0;startSize=0;swimlaneHead=0;swimlaneBody=0;fillColor=none;collapsible=0;dropTarget=0;points=[[0,0.5],[1,0.5]];portConstraint=eastwest;top=0;left=0;right=0;bottom=1;" parent="k0QNLuaNLbzrx7ui5d-k-1" vertex="1">
          <mxGeometry y="30" width="180" height="30" as="geometry" />
        </mxCell>
        <mxCell id="k0QNLuaNLbzrx7ui5d-k-3" value="PK" style="shape=partialRectangle;connectable=0;fillColor=none;top=0;left=0;bottom=0;right=0;fontStyle=1;overflow=hidden;" parent="k0QNLuaNLbzrx7ui5d-k-2" vertex="1">
          <mxGeometry width="30" height="30" as="geometry">
            <mxRectangle width="30" height="30" as="alternateBounds" />
          </mxGeometry>
        </mxCell>
        <mxCell id="k0QNLuaNLbzrx7ui5d-k-4" value="UniqueID" style="shape=partialRectangle;connectable=0;fillColor=none;top=0;left=0;bottom=0;right=0;align=left;spacingLeft=6;fontStyle=5;overflow=hidden;" parent="k0QNLuaNLbzrx7ui5d-k-2" vertex="1">
          <mxGeometry x="30" width="150" height="30" as="geometry">
            <mxRectangle width="150" height="30" as="alternateBounds" />
          </mxGeometry>
        </mxCell>
        <mxCell id="k0QNLuaNLbzrx7ui5d-k-5" value="" style="shape=tableRow;horizontal=0;startSize=0;swimlaneHead=0;swimlaneBody=0;fillColor=none;collapsible=0;dropTarget=0;points=[[0,0.5],[1,0.5]];portConstraint=eastwest;top=0;left=0;right=0;bottom=0;" parent="k0QNLuaNLbzrx7ui5d-k-1" vertex="1">
          <mxGeometry y="60" width="180" height="30" as="geometry" />
        </mxCell>
        <mxCell id="k0QNLuaNLbzrx7ui5d-k-6" value="" style="shape=partialRectangle;connectable=0;fillColor=none;top=0;left=0;bottom=0;right=0;editable=1;overflow=hidden;" parent="k0QNLuaNLbzrx7ui5d-k-5" vertex="1">
          <mxGeometry width="30" height="30" as="geometry">
            <mxRectangle width="30" height="30" as="alternateBounds" />
          </mxGeometry>
        </mxCell>
        <mxCell id="k0QNLuaNLbzrx7ui5d-k-7" value="BSN " style="shape=partialRectangle;connectable=0;fillColor=none;top=0;left=0;bottom=0;right=0;align=left;spacingLeft=6;overflow=hidden;" parent="k0QNLuaNLbzrx7ui5d-k-5" vertex="1">
          <mxGeometry x="30" width="150" height="30" as="geometry">
            <mxRectangle width="150" height="30" as="alternateBounds" />
          </mxGeometry>
        </mxCell>
        <mxCell id="k0QNLuaNLbzrx7ui5d-k-8" value="" style="shape=tableRow;horizontal=0;startSize=0;swimlaneHead=0;swimlaneBody=0;fillColor=none;collapsible=0;dropTarget=0;points=[[0,0.5],[1,0.5]];portConstraint=eastwest;top=0;left=0;right=0;bottom=0;" parent="k0QNLuaNLbzrx7ui5d-k-1" vertex="1">
          <mxGeometry y="90" width="180" height="30" as="geometry" />
        </mxCell>
        <mxCell id="k0QNLuaNLbzrx7ui5d-k-9" value="" style="shape=partialRectangle;connectable=0;fillColor=none;top=0;left=0;bottom=0;right=0;editable=1;overflow=hidden;" parent="k0QNLuaNLbzrx7ui5d-k-8" vertex="1">
          <mxGeometry width="30" height="30" as="geometry">
            <mxRectangle width="30" height="30" as="alternateBounds" />
          </mxGeometry>
        </mxCell>
        <mxCell id="k0QNLuaNLbzrx7ui5d-k-10" value="Voornaam" style="shape=partialRectangle;connectable=0;fillColor=none;top=0;left=0;bottom=0;right=0;align=left;spacingLeft=6;overflow=hidden;" parent="k0QNLuaNLbzrx7ui5d-k-8" vertex="1">
          <mxGeometry x="30" width="150" height="30" as="geometry">
            <mxRectangle width="150" height="30" as="alternateBounds" />
          </mxGeometry>
        </mxCell>
        <mxCell id="k0QNLuaNLbzrx7ui5d-k-11" value="" style="shape=tableRow;horizontal=0;startSize=0;swimlaneHead=0;swimlaneBody=0;fillColor=none;collapsible=0;dropTarget=0;points=[[0,0.5],[1,0.5]];portConstraint=eastwest;top=0;left=0;right=0;bottom=0;" parent="k0QNLuaNLbzrx7ui5d-k-1" vertex="1">
          <mxGeometry y="120" width="180" height="30" as="geometry" />
        </mxCell>
        <mxCell id="k0QNLuaNLbzrx7ui5d-k-12" value="" style="shape=partialRectangle;connectable=0;fillColor=none;top=0;left=0;bottom=0;right=0;editable=1;overflow=hidden;" parent="k0QNLuaNLbzrx7ui5d-k-11" vertex="1">
          <mxGeometry width="30" height="30" as="geometry">
            <mxRectangle width="30" height="30" as="alternateBounds" />
          </mxGeometry>
        </mxCell>
        <mxCell id="k0QNLuaNLbzrx7ui5d-k-13" value="Achternaam" style="shape=partialRectangle;connectable=0;fillColor=none;top=0;left=0;bottom=0;right=0;align=left;spacingLeft=6;overflow=hidden;" parent="k0QNLuaNLbzrx7ui5d-k-11" vertex="1">
          <mxGeometry x="30" width="150" height="30" as="geometry">
            <mxRectangle width="150" height="30" as="alternateBounds" />
          </mxGeometry>
        </mxCell>
        <mxCell id="k0QNLuaNLbzrx7ui5d-k-14" value="" style="endArrow=none;html=1;rounded=0;entryX=0.15;entryY=1.033;entryDx=0;entryDy=0;entryPerimeter=0;" parent="1" edge="1">
          <mxGeometry width="50" height="50" relative="1" as="geometry">
            <mxPoint x="70" y="640" as="sourcePoint" />
            <mxPoint x="70" y="460.99" as="targetPoint" />
          </mxGeometry>
        </mxCell>
        <mxCell id="k0QNLuaNLbzrx7ui5d-k-15" value="" style="shape=tableRow;horizontal=0;startSize=0;swimlaneHead=0;swimlaneBody=0;fillColor=none;collapsible=0;dropTarget=0;points=[[0,0.5],[1,0.5]];portConstraint=eastwest;top=0;left=0;right=0;bottom=0;" parent="1" vertex="1">
          <mxGeometry x="40" y="460" width="180" height="30" as="geometry" />
        </mxCell>
        <mxCell id="k0QNLuaNLbzrx7ui5d-k-16" value="" style="shape=partialRectangle;connectable=0;fillColor=none;top=0;left=0;bottom=0;right=0;editable=1;overflow=hidden;" parent="k0QNLuaNLbzrx7ui5d-k-15" vertex="1">
          <mxGeometry width="30" height="30" as="geometry">
            <mxRectangle width="30" height="30" as="alternateBounds" />
          </mxGeometry>
        </mxCell>
        <mxCell id="k0QNLuaNLbzrx7ui5d-k-17" value="Beroep" style="shape=partialRectangle;connectable=0;fillColor=none;top=0;left=0;bottom=0;right=0;align=left;spacingLeft=6;overflow=hidden;" parent="k0QNLuaNLbzrx7ui5d-k-15" vertex="1">
          <mxGeometry x="30" width="150" height="30" as="geometry">
            <mxRectangle width="150" height="30" as="alternateBounds" />
          </mxGeometry>
        </mxCell>
        <mxCell id="k0QNLuaNLbzrx7ui5d-k-18" value="" style="shape=tableRow;horizontal=0;startSize=0;swimlaneHead=0;swimlaneBody=0;fillColor=none;collapsible=0;dropTarget=0;points=[[0,0.5],[1,0.5]];portConstraint=eastwest;top=0;left=0;right=0;bottom=0;" parent="1" vertex="1">
          <mxGeometry x="60" y="450" width="180" height="30" as="geometry" />
        </mxCell>
        <mxCell id="k0QNLuaNLbzrx7ui5d-k-19" value="" style="shape=partialRectangle;connectable=0;fillColor=none;top=0;left=0;bottom=0;right=0;editable=1;overflow=hidden;" parent="k0QNLuaNLbzrx7ui5d-k-18" vertex="1">
          <mxGeometry width="30" height="30" as="geometry">
            <mxRectangle width="30" height="30" as="alternateBounds" />
          </mxGeometry>
        </mxCell>
        <mxCell id="k0QNLuaNLbzrx7ui5d-k-20" value="Woonplaats" style="shape=partialRectangle;connectable=0;fillColor=none;top=0;left=0;bottom=0;right=0;align=left;spacingLeft=6;overflow=hidden;" parent="1" vertex="1">
          <mxGeometry x="70" y="490" width="150" height="30" as="geometry">
            <mxRectangle width="150" height="30" as="alternateBounds" />
          </mxGeometry>
        </mxCell>
        <mxCell id="k0QNLuaNLbzrx7ui5d-k-21" value="" style="shape=tableRow;horizontal=0;startSize=0;swimlaneHead=0;swimlaneBody=0;fillColor=none;collapsible=0;dropTarget=0;points=[[0,0.5],[1,0.5]];portConstraint=eastwest;top=0;left=0;right=0;bottom=0;" parent="1" vertex="1">
          <mxGeometry x="40" y="520" width="180" height="30" as="geometry" />
        </mxCell>
        <mxCell id="k0QNLuaNLbzrx7ui5d-k-22" value="" style="shape=partialRectangle;connectable=0;fillColor=none;top=0;left=0;bottom=0;right=0;editable=1;overflow=hidden;" parent="k0QNLuaNLbzrx7ui5d-k-21" vertex="1">
          <mxGeometry width="30" height="30" as="geometry">
            <mxRectangle width="30" height="30" as="alternateBounds" />
          </mxGeometry>
        </mxCell>
        <mxCell id="k0QNLuaNLbzrx7ui5d-k-23" value="Postcode" style="shape=partialRectangle;connectable=0;fillColor=none;top=0;left=0;bottom=0;right=0;align=left;spacingLeft=6;overflow=hidden;" parent="k0QNLuaNLbzrx7ui5d-k-21" vertex="1">
          <mxGeometry x="30" width="150" height="30" as="geometry">
            <mxRectangle width="150" height="30" as="alternateBounds" />
          </mxGeometry>
        </mxCell>
        <mxCell id="k0QNLuaNLbzrx7ui5d-k-24" value="" style="shape=tableRow;horizontal=0;startSize=0;swimlaneHead=0;swimlaneBody=0;fillColor=none;collapsible=0;dropTarget=0;points=[[0,0.5],[1,0.5]];portConstraint=eastwest;top=0;left=0;right=0;bottom=0;" parent="1" vertex="1">
          <mxGeometry x="40" y="550" width="180" height="30" as="geometry" />
        </mxCell>
        <mxCell id="k0QNLuaNLbzrx7ui5d-k-25" value="" style="shape=partialRectangle;connectable=0;fillColor=none;top=0;left=0;bottom=0;right=0;editable=1;overflow=hidden;" parent="k0QNLuaNLbzrx7ui5d-k-24" vertex="1">
          <mxGeometry width="30" height="30" as="geometry">
            <mxRectangle width="30" height="30" as="alternateBounds" />
          </mxGeometry>
        </mxCell>
        <mxCell id="k0QNLuaNLbzrx7ui5d-k-26" value="status_aanvraag" style="shape=partialRectangle;connectable=0;fillColor=none;top=0;left=0;bottom=0;right=0;align=left;spacingLeft=6;overflow=hidden;" parent="k0QNLuaNLbzrx7ui5d-k-24" vertex="1">
          <mxGeometry x="30" width="150" height="30" as="geometry">
            <mxRectangle width="150" height="30" as="alternateBounds" />
          </mxGeometry>
        </mxCell>
        <mxCell id="k0QNLuaNLbzrx7ui5d-k-27" value="" style="shape=tableRow;horizontal=0;startSize=0;swimlaneHead=0;swimlaneBody=0;fillColor=none;collapsible=0;dropTarget=0;points=[[0,0.5],[1,0.5]];portConstraint=eastwest;top=0;left=0;right=0;bottom=0;" parent="1" vertex="1">
          <mxGeometry x="40" y="580" width="180" height="30" as="geometry" />
        </mxCell>
        <mxCell id="k0QNLuaNLbzrx7ui5d-k-28" value="" style="shape=partialRectangle;connectable=0;fillColor=none;top=0;left=0;bottom=0;right=0;editable=1;overflow=hidden;" parent="k0QNLuaNLbzrx7ui5d-k-27" vertex="1">
          <mxGeometry width="30" height="30" as="geometry">
            <mxRectangle width="30" height="30" as="alternateBounds" />
          </mxGeometry>
        </mxCell>
        <mxCell id="k0QNLuaNLbzrx7ui5d-k-29" value="datum_aanvraag" style="shape=partialRectangle;connectable=0;fillColor=none;top=0;left=0;bottom=0;right=0;align=left;spacingLeft=6;overflow=hidden;" parent="k0QNLuaNLbzrx7ui5d-k-27" vertex="1">
          <mxGeometry x="30" width="150" height="30" as="geometry">
            <mxRectangle width="150" height="30" as="alternateBounds" />
          </mxGeometry>
        </mxCell>
        <mxCell id="k0QNLuaNLbzrx7ui5d-k-30" value="" style="shape=tableRow;horizontal=0;startSize=0;swimlaneHead=0;swimlaneBody=0;fillColor=none;collapsible=0;dropTarget=0;points=[[0,0.5],[1,0.5]];portConstraint=eastwest;top=0;left=0;right=0;bottom=0;" parent="1" vertex="1">
          <mxGeometry x="40" y="610" width="180" height="30" as="geometry" />
        </mxCell>
        <mxCell id="k0QNLuaNLbzrx7ui5d-k-31" value="" style="shape=partialRectangle;connectable=0;fillColor=none;top=0;left=0;bottom=0;right=0;editable=1;overflow=hidden;" parent="k0QNLuaNLbzrx7ui5d-k-30" vertex="1">
          <mxGeometry width="30" height="30" as="geometry">
            <mxRectangle width="30" height="30" as="alternateBounds" />
          </mxGeometry>
        </mxCell>
        <mxCell id="k0QNLuaNLbzrx7ui5d-k-32" value="DIM_Blok velden" style="shape=partialRectangle;connectable=0;fillColor=none;top=0;left=0;bottom=0;right=0;align=left;spacingLeft=6;overflow=hidden;" parent="k0QNLuaNLbzrx7ui5d-k-30" vertex="1">
          <mxGeometry x="30" width="150" height="30" as="geometry">
            <mxRectangle width="150" height="30" as="alternateBounds" />
          </mxGeometry>
        </mxCell>
        <mxCell id="k0QNLuaNLbzrx7ui5d-k-33" value="Tabel met gemaskeerde data" style="shape=table;startSize=30;container=1;collapsible=1;childLayout=tableLayout;fixedRows=1;rowLines=0;fontStyle=1;align=center;resizeLast=1;fillColor=#d5e8d4;strokeColor=#82b366;" parent="1" vertex="1">
          <mxGeometry x="280" y="310" width="180" height="330" as="geometry" />
        </mxCell>
        <mxCell id="k0QNLuaNLbzrx7ui5d-k-34" value="" style="shape=tableRow;horizontal=0;startSize=0;swimlaneHead=0;swimlaneBody=0;fillColor=none;collapsible=0;dropTarget=0;points=[[0,0.5],[1,0.5]];portConstraint=eastwest;top=0;left=0;right=0;bottom=1;" parent="k0QNLuaNLbzrx7ui5d-k-33" vertex="1">
          <mxGeometry y="30" width="180" height="30" as="geometry" />
        </mxCell>
        <mxCell id="k0QNLuaNLbzrx7ui5d-k-35" value="PK" style="shape=partialRectangle;connectable=0;fillColor=none;top=0;left=0;bottom=0;right=0;fontStyle=1;overflow=hidden;" parent="k0QNLuaNLbzrx7ui5d-k-34" vertex="1">
          <mxGeometry width="30" height="30" as="geometry">
            <mxRectangle width="30" height="30" as="alternateBounds" />
          </mxGeometry>
        </mxCell>
        <mxCell id="k0QNLuaNLbzrx7ui5d-k-36" value="UniqueID" style="shape=partialRectangle;connectable=0;fillColor=none;top=0;left=0;bottom=0;right=0;align=left;spacingLeft=6;fontStyle=5;overflow=hidden;" parent="k0QNLuaNLbzrx7ui5d-k-34" vertex="1">
          <mxGeometry x="30" width="150" height="30" as="geometry">
            <mxRectangle width="150" height="30" as="alternateBounds" />
          </mxGeometry>
        </mxCell>
        <mxCell id="k0QNLuaNLbzrx7ui5d-k-37" value="" style="shape=tableRow;horizontal=0;startSize=0;swimlaneHead=0;swimlaneBody=0;fillColor=none;collapsible=0;dropTarget=0;points=[[0,0.5],[1,0.5]];portConstraint=eastwest;top=0;left=0;right=0;bottom=0;" parent="k0QNLuaNLbzrx7ui5d-k-33" vertex="1">
          <mxGeometry y="60" width="180" height="30" as="geometry" />
        </mxCell>
        <mxCell id="k0QNLuaNLbzrx7ui5d-k-38" value="" style="shape=partialRectangle;connectable=0;fillColor=none;top=0;left=0;bottom=0;right=0;editable=1;overflow=hidden;" parent="k0QNLuaNLbzrx7ui5d-k-37" vertex="1">
          <mxGeometry width="30" height="30" as="geometry">
            <mxRectangle width="30" height="30" as="alternateBounds" />
          </mxGeometry>
        </mxCell>
        <mxCell id="k0QNLuaNLbzrx7ui5d-k-39" value="O_BSN" style="shape=partialRectangle;connectable=0;fillColor=none;top=0;left=0;bottom=0;right=0;align=left;spacingLeft=6;overflow=hidden;" parent="k0QNLuaNLbzrx7ui5d-k-37" vertex="1">
          <mxGeometry x="30" width="150" height="30" as="geometry">
            <mxRectangle width="150" height="30" as="alternateBounds" />
          </mxGeometry>
        </mxCell>
        <mxCell id="k0QNLuaNLbzrx7ui5d-k-40" value="" style="shape=tableRow;horizontal=0;startSize=0;swimlaneHead=0;swimlaneBody=0;fillColor=none;collapsible=0;dropTarget=0;points=[[0,0.5],[1,0.5]];portConstraint=eastwest;top=0;left=0;right=0;bottom=0;" parent="k0QNLuaNLbzrx7ui5d-k-33" vertex="1">
          <mxGeometry y="90" width="180" height="30" as="geometry" />
        </mxCell>
        <mxCell id="k0QNLuaNLbzrx7ui5d-k-41" value="" style="shape=partialRectangle;connectable=0;fillColor=none;top=0;left=0;bottom=0;right=0;editable=1;overflow=hidden;" parent="k0QNLuaNLbzrx7ui5d-k-40" vertex="1">
          <mxGeometry width="30" height="30" as="geometry">
            <mxRectangle width="30" height="30" as="alternateBounds" />
          </mxGeometry>
        </mxCell>
        <mxCell id="k0QNLuaNLbzrx7ui5d-k-42" value="M_BSN" style="shape=partialRectangle;connectable=0;fillColor=none;top=0;left=0;bottom=0;right=0;align=left;spacingLeft=6;overflow=hidden;" parent="k0QNLuaNLbzrx7ui5d-k-40" vertex="1">
          <mxGeometry x="30" width="150" height="30" as="geometry">
            <mxRectangle width="150" height="30" as="alternateBounds" />
          </mxGeometry>
        </mxCell>
        <mxCell id="k0QNLuaNLbzrx7ui5d-k-43" value="" style="shape=tableRow;horizontal=0;startSize=0;swimlaneHead=0;swimlaneBody=0;fillColor=none;collapsible=0;dropTarget=0;points=[[0,0.5],[1,0.5]];portConstraint=eastwest;top=0;left=0;right=0;bottom=0;" parent="k0QNLuaNLbzrx7ui5d-k-33" vertex="1">
          <mxGeometry y="120" width="180" height="30" as="geometry" />
        </mxCell>
        <mxCell id="k0QNLuaNLbzrx7ui5d-k-44" value="" style="shape=partialRectangle;connectable=0;fillColor=none;top=0;left=0;bottom=0;right=0;editable=1;overflow=hidden;" parent="k0QNLuaNLbzrx7ui5d-k-43" vertex="1">
          <mxGeometry width="30" height="30" as="geometry">
            <mxRectangle width="30" height="30" as="alternateBounds" />
          </mxGeometry>
        </mxCell>
        <mxCell id="k0QNLuaNLbzrx7ui5d-k-45" value="O_Voornaam" style="shape=partialRectangle;connectable=0;fillColor=none;top=0;left=0;bottom=0;right=0;align=left;spacingLeft=6;overflow=hidden;" parent="k0QNLuaNLbzrx7ui5d-k-43" vertex="1">
          <mxGeometry x="30" width="150" height="30" as="geometry">
            <mxRectangle width="150" height="30" as="alternateBounds" />
          </mxGeometry>
        </mxCell>
        <mxCell id="k0QNLuaNLbzrx7ui5d-k-46" value="" style="endArrow=none;html=1;rounded=0;entryX=0.15;entryY=1.033;entryDx=0;entryDy=0;entryPerimeter=0;" parent="1" edge="1">
          <mxGeometry width="50" height="50" relative="1" as="geometry">
            <mxPoint x="310" y="640" as="sourcePoint" />
            <mxPoint x="310" y="460.99" as="targetPoint" />
          </mxGeometry>
        </mxCell>
        <mxCell id="k0QNLuaNLbzrx7ui5d-k-47" value="" style="shape=tableRow;horizontal=0;startSize=0;swimlaneHead=0;swimlaneBody=0;fillColor=none;collapsible=0;dropTarget=0;points=[[0,0.5],[1,0.5]];portConstraint=eastwest;top=0;left=0;right=0;bottom=0;" parent="1" vertex="1">
          <mxGeometry x="280" y="460" width="180" height="30" as="geometry" />
        </mxCell>
        <mxCell id="k0QNLuaNLbzrx7ui5d-k-48" value="" style="shape=partialRectangle;connectable=0;fillColor=none;top=0;left=0;bottom=0;right=0;editable=1;overflow=hidden;" parent="k0QNLuaNLbzrx7ui5d-k-47" vertex="1">
          <mxGeometry width="30" height="30" as="geometry">
            <mxRectangle width="30" height="30" as="alternateBounds" />
          </mxGeometry>
        </mxCell>
        <mxCell id="k0QNLuaNLbzrx7ui5d-k-49" value="B_Voornaam" style="shape=partialRectangle;connectable=0;fillColor=none;top=0;left=0;bottom=0;right=0;align=left;spacingLeft=6;overflow=hidden;" parent="k0QNLuaNLbzrx7ui5d-k-47" vertex="1">
          <mxGeometry x="30" width="150" height="30" as="geometry">
            <mxRectangle width="150" height="30" as="alternateBounds" />
          </mxGeometry>
        </mxCell>
        <mxCell id="k0QNLuaNLbzrx7ui5d-k-50" value="" style="shape=tableRow;horizontal=0;startSize=0;swimlaneHead=0;swimlaneBody=0;fillColor=none;collapsible=0;dropTarget=0;points=[[0,0.5],[1,0.5]];portConstraint=eastwest;top=0;left=0;right=0;bottom=0;" parent="1" vertex="1">
          <mxGeometry x="300" y="450" width="180" height="30" as="geometry" />
        </mxCell>
        <mxCell id="k0QNLuaNLbzrx7ui5d-k-51" value="" style="shape=partialRectangle;connectable=0;fillColor=none;top=0;left=0;bottom=0;right=0;editable=1;overflow=hidden;" parent="k0QNLuaNLbzrx7ui5d-k-50" vertex="1">
          <mxGeometry width="30" height="30" as="geometry">
            <mxRectangle width="30" height="30" as="alternateBounds" />
          </mxGeometry>
        </mxCell>
        <mxCell id="k0QNLuaNLbzrx7ui5d-k-52" value="X_Beroep" style="shape=partialRectangle;connectable=0;fillColor=none;top=0;left=0;bottom=0;right=0;align=left;spacingLeft=6;overflow=hidden;" parent="1" vertex="1">
          <mxGeometry x="310" y="490" width="150" height="30" as="geometry">
            <mxRectangle width="150" height="30" as="alternateBounds" />
          </mxGeometry>
        </mxCell>
        <mxCell id="k0QNLuaNLbzrx7ui5d-k-53" value="" style="shape=tableRow;horizontal=0;startSize=0;swimlaneHead=0;swimlaneBody=0;fillColor=none;collapsible=0;dropTarget=0;points=[[0,0.5],[1,0.5]];portConstraint=eastwest;top=0;left=0;right=0;bottom=0;" parent="1" vertex="1">
          <mxGeometry x="280" y="520" width="180" height="30" as="geometry" />
        </mxCell>
        <mxCell id="k0QNLuaNLbzrx7ui5d-k-54" value="" style="shape=partialRectangle;connectable=0;fillColor=none;top=0;left=0;bottom=0;right=0;editable=1;overflow=hidden;" parent="k0QNLuaNLbzrx7ui5d-k-53" vertex="1">
          <mxGeometry width="30" height="30" as="geometry">
            <mxRectangle width="30" height="30" as="alternateBounds" />
          </mxGeometry>
        </mxCell>
        <mxCell id="k0QNLuaNLbzrx7ui5d-k-55" value="X_Woonplaats" style="shape=partialRectangle;connectable=0;fillColor=none;top=0;left=0;bottom=0;right=0;align=left;spacingLeft=6;overflow=hidden;" parent="k0QNLuaNLbzrx7ui5d-k-53" vertex="1">
          <mxGeometry x="30" width="150" height="30" as="geometry">
            <mxRectangle width="150" height="30" as="alternateBounds" />
          </mxGeometry>
        </mxCell>
        <mxCell id="k0QNLuaNLbzrx7ui5d-k-56" value="" style="shape=tableRow;horizontal=0;startSize=0;swimlaneHead=0;swimlaneBody=0;fillColor=none;collapsible=0;dropTarget=0;points=[[0,0.5],[1,0.5]];portConstraint=eastwest;top=0;left=0;right=0;bottom=0;" parent="1" vertex="1">
          <mxGeometry x="280" y="550" width="180" height="30" as="geometry" />
        </mxCell>
        <mxCell id="k0QNLuaNLbzrx7ui5d-k-57" value="" style="shape=partialRectangle;connectable=0;fillColor=none;top=0;left=0;bottom=0;right=0;editable=1;overflow=hidden;" parent="k0QNLuaNLbzrx7ui5d-k-56" vertex="1">
          <mxGeometry width="30" height="30" as="geometry">
            <mxRectangle width="30" height="30" as="alternateBounds" />
          </mxGeometry>
        </mxCell>
        <mxCell id="k0QNLuaNLbzrx7ui5d-k-58" value="O_Postcode" style="shape=partialRectangle;connectable=0;fillColor=none;top=0;left=0;bottom=0;right=0;align=left;spacingLeft=6;overflow=hidden;" parent="k0QNLuaNLbzrx7ui5d-k-56" vertex="1">
          <mxGeometry x="30" width="150" height="30" as="geometry">
            <mxRectangle width="150" height="30" as="alternateBounds" />
          </mxGeometry>
        </mxCell>
        <mxCell id="k0QNLuaNLbzrx7ui5d-k-59" value="" style="shape=tableRow;horizontal=0;startSize=0;swimlaneHead=0;swimlaneBody=0;fillColor=none;collapsible=0;dropTarget=0;points=[[0,0.5],[1,0.5]];portConstraint=eastwest;top=0;left=0;right=0;bottom=0;" parent="1" vertex="1">
          <mxGeometry x="280" y="580" width="180" height="30" as="geometry" />
        </mxCell>
        <mxCell id="k0QNLuaNLbzrx7ui5d-k-60" value="" style="shape=partialRectangle;connectable=0;fillColor=none;top=0;left=0;bottom=0;right=0;editable=1;overflow=hidden;" parent="k0QNLuaNLbzrx7ui5d-k-59" vertex="1">
          <mxGeometry width="30" height="30" as="geometry">
            <mxRectangle width="30" height="30" as="alternateBounds" />
          </mxGeometry>
        </mxCell>
        <mxCell id="k0QNLuaNLbzrx7ui5d-k-61" value="M_Postcode" style="shape=partialRectangle;connectable=0;fillColor=none;top=0;left=0;bottom=0;right=0;align=left;spacingLeft=6;overflow=hidden;" parent="k0QNLuaNLbzrx7ui5d-k-59" vertex="1">
          <mxGeometry x="30" width="150" height="30" as="geometry">
            <mxRectangle width="150" height="30" as="alternateBounds" />
          </mxGeometry>
        </mxCell>
        <mxCell id="k0QNLuaNLbzrx7ui5d-k-62" value="" style="shape=tableRow;horizontal=0;startSize=0;swimlaneHead=0;swimlaneBody=0;fillColor=none;collapsible=0;dropTarget=0;points=[[0,0.5],[1,0.5]];portConstraint=eastwest;top=0;left=0;right=0;bottom=0;" parent="1" vertex="1">
          <mxGeometry x="280" y="610" width="180" height="30" as="geometry" />
        </mxCell>
        <mxCell id="k0QNLuaNLbzrx7ui5d-k-63" value="" style="shape=partialRectangle;connectable=0;fillColor=none;top=0;left=0;bottom=0;right=0;editable=1;overflow=hidden;" parent="k0QNLuaNLbzrx7ui5d-k-62" vertex="1">
          <mxGeometry width="30" height="30" as="geometry">
            <mxRectangle width="30" height="30" as="alternateBounds" />
          </mxGeometry>
        </mxCell>
        <mxCell id="k0QNLuaNLbzrx7ui5d-k-64" value="DIM_Blok velden" style="shape=partialRectangle;connectable=0;fillColor=none;top=0;left=0;bottom=0;right=0;align=left;spacingLeft=6;overflow=hidden;" parent="k0QNLuaNLbzrx7ui5d-k-62" vertex="1">
          <mxGeometry x="30" width="150" height="30" as="geometry">
            <mxRectangle width="150" height="30" as="alternateBounds" />
          </mxGeometry>
        </mxCell>
        <mxCell id="k0QNLuaNLbzrx7ui5d-k-65" value="" style="endArrow=classic;html=1;rounded=0;" parent="1" source="k0QNLuaNLbzrx7ui5d-k-5" target="k0QNLuaNLbzrx7ui5d-k-37" edge="1">
          <mxGeometry width="50" height="50" relative="1" as="geometry">
            <mxPoint x="210" y="710" as="sourcePoint" />
            <mxPoint x="270" y="380" as="targetPoint" />
          </mxGeometry>
        </mxCell>
        <mxCell id="k0QNLuaNLbzrx7ui5d-k-66" value="" style="endArrow=classic;html=1;rounded=0;entryX=0;entryY=0.5;entryDx=0;entryDy=0;exitX=1;exitY=0.5;exitDx=0;exitDy=0;" parent="1" source="k0QNLuaNLbzrx7ui5d-k-5" target="k0QNLuaNLbzrx7ui5d-k-40" edge="1">
          <mxGeometry width="50" height="50" relative="1" as="geometry">
            <mxPoint x="230" y="395" as="sourcePoint" />
            <mxPoint x="290" y="395" as="targetPoint" />
          </mxGeometry>
        </mxCell>
        <mxCell id="k0QNLuaNLbzrx7ui5d-k-67" value="" style="endArrow=classic;html=1;rounded=0;entryX=0;entryY=0.5;entryDx=0;entryDy=0;exitX=1;exitY=0.5;exitDx=0;exitDy=0;" parent="1" source="k0QNLuaNLbzrx7ui5d-k-8" target="k0QNLuaNLbzrx7ui5d-k-43" edge="1">
          <mxGeometry width="50" height="50" relative="1" as="geometry">
            <mxPoint x="230" y="395" as="sourcePoint" />
            <mxPoint x="290" y="425" as="targetPoint" />
          </mxGeometry>
        </mxCell>
        <mxCell id="k0QNLuaNLbzrx7ui5d-k-69" value="&lt;h1&gt;Maskeringsconversieregels&lt;/h1&gt;&lt;p&gt;BSN is identificeren dus deze moet worden opgeslagen als orgineel en als gemaskeerd&amp;nbsp;&lt;/p&gt;&lt;p&gt;Orginieel is O=Orginieel&lt;/p&gt;&lt;p&gt;M=Maskeerd&lt;/p&gt;&lt;p&gt;X=geen regel&lt;/p&gt;" style="text;html=1;strokeColor=#666666;fillColor=#f5f5f5;spacing=5;spacingTop=-20;whiteSpace=wrap;overflow=hidden;rounded=0;fontColor=#333333;" parent="1" vertex="1">
          <mxGeometry x="60" y="930" width="360" height="210" as="geometry" />
        </mxCell>
        <mxCell id="k0QNLuaNLbzrx7ui5d-k-70" value="" style="endArrow=classic;html=1;rounded=0;exitX=1;exitY=0.5;exitDx=0;exitDy=0;" parent="1" source="k0QNLuaNLbzrx7ui5d-k-15" edge="1">
          <mxGeometry width="50" height="50" relative="1" as="geometry">
            <mxPoint x="230" y="425" as="sourcePoint" />
            <mxPoint x="280" y="510" as="targetPoint" />
          </mxGeometry>
        </mxCell>
        <mxCell id="k0QNLuaNLbzrx7ui5d-k-71" value="" style="endArrow=classic;html=1;rounded=0;entryX=-0.022;entryY=0.3;entryDx=0;entryDy=0;exitX=1;exitY=0.5;exitDx=0;exitDy=0;entryPerimeter=0;" parent="1" source="k0QNLuaNLbzrx7ui5d-k-8" target="k0QNLuaNLbzrx7ui5d-k-47" edge="1">
          <mxGeometry width="50" height="50" relative="1" as="geometry">
            <mxPoint x="230" y="425" as="sourcePoint" />
            <mxPoint x="290" y="455" as="targetPoint" />
          </mxGeometry>
        </mxCell>
        <mxCell id="k0QNLuaNLbzrx7ui5d-k-117" value="OKV  ORGINEEL" style="shape=table;startSize=30;container=1;collapsible=1;childLayout=tableLayout;fixedRows=1;rowLines=0;fontStyle=1;align=center;resizeLast=1;fillColor=#f5f5f5;fontColor=#333333;strokeColor=#666666;" parent="1" vertex="1">
          <mxGeometry x="595" y="140" width="180" height="330" as="geometry" />
        </mxCell>
        <mxCell id="k0QNLuaNLbzrx7ui5d-k-118" value="" style="shape=tableRow;horizontal=0;startSize=0;swimlaneHead=0;swimlaneBody=0;fillColor=none;collapsible=0;dropTarget=0;points=[[0,0.5],[1,0.5]];portConstraint=eastwest;top=0;left=0;right=0;bottom=1;" parent="k0QNLuaNLbzrx7ui5d-k-117" vertex="1">
          <mxGeometry y="30" width="180" height="30" as="geometry" />
        </mxCell>
        <mxCell id="k0QNLuaNLbzrx7ui5d-k-119" value="PK" style="shape=partialRectangle;connectable=0;fillColor=none;top=0;left=0;bottom=0;right=0;fontStyle=1;overflow=hidden;" parent="k0QNLuaNLbzrx7ui5d-k-118" vertex="1">
          <mxGeometry width="30" height="30" as="geometry">
            <mxRectangle width="30" height="30" as="alternateBounds" />
          </mxGeometry>
        </mxCell>
        <mxCell id="k0QNLuaNLbzrx7ui5d-k-120" value="UniqueID" style="shape=partialRectangle;connectable=0;fillColor=none;top=0;left=0;bottom=0;right=0;align=left;spacingLeft=6;fontStyle=5;overflow=hidden;" parent="k0QNLuaNLbzrx7ui5d-k-118" vertex="1">
          <mxGeometry x="30" width="150" height="30" as="geometry">
            <mxRectangle width="150" height="30" as="alternateBounds" />
          </mxGeometry>
        </mxCell>
        <mxCell id="k0QNLuaNLbzrx7ui5d-k-121" value="" style="shape=tableRow;horizontal=0;startSize=0;swimlaneHead=0;swimlaneBody=0;fillColor=none;collapsible=0;dropTarget=0;points=[[0,0.5],[1,0.5]];portConstraint=eastwest;top=0;left=0;right=0;bottom=0;" parent="k0QNLuaNLbzrx7ui5d-k-117" vertex="1">
          <mxGeometry y="60" width="180" height="30" as="geometry" />
        </mxCell>
        <mxCell id="k0QNLuaNLbzrx7ui5d-k-122" value="" style="shape=partialRectangle;connectable=0;fillColor=none;top=0;left=0;bottom=0;right=0;editable=1;overflow=hidden;" parent="k0QNLuaNLbzrx7ui5d-k-121" vertex="1">
          <mxGeometry width="30" height="30" as="geometry">
            <mxRectangle width="30" height="30" as="alternateBounds" />
          </mxGeometry>
        </mxCell>
        <mxCell id="k0QNLuaNLbzrx7ui5d-k-123" value="BSN " style="shape=partialRectangle;connectable=0;fillColor=none;top=0;left=0;bottom=0;right=0;align=left;spacingLeft=6;overflow=hidden;" parent="k0QNLuaNLbzrx7ui5d-k-121" vertex="1">
          <mxGeometry x="30" width="150" height="30" as="geometry">
            <mxRectangle width="150" height="30" as="alternateBounds" />
          </mxGeometry>
        </mxCell>
        <mxCell id="k0QNLuaNLbzrx7ui5d-k-124" value="" style="shape=tableRow;horizontal=0;startSize=0;swimlaneHead=0;swimlaneBody=0;fillColor=none;collapsible=0;dropTarget=0;points=[[0,0.5],[1,0.5]];portConstraint=eastwest;top=0;left=0;right=0;bottom=0;" parent="k0QNLuaNLbzrx7ui5d-k-117" vertex="1">
          <mxGeometry y="90" width="180" height="30" as="geometry" />
        </mxCell>
        <mxCell id="k0QNLuaNLbzrx7ui5d-k-125" value="" style="shape=partialRectangle;connectable=0;fillColor=none;top=0;left=0;bottom=0;right=0;editable=1;overflow=hidden;" parent="k0QNLuaNLbzrx7ui5d-k-124" vertex="1">
          <mxGeometry width="30" height="30" as="geometry">
            <mxRectangle width="30" height="30" as="alternateBounds" />
          </mxGeometry>
        </mxCell>
        <mxCell id="k0QNLuaNLbzrx7ui5d-k-126" value="Voornaam" style="shape=partialRectangle;connectable=0;fillColor=none;top=0;left=0;bottom=0;right=0;align=left;spacingLeft=6;overflow=hidden;" parent="k0QNLuaNLbzrx7ui5d-k-124" vertex="1">
          <mxGeometry x="30" width="150" height="30" as="geometry">
            <mxRectangle width="150" height="30" as="alternateBounds" />
          </mxGeometry>
        </mxCell>
        <mxCell id="k0QNLuaNLbzrx7ui5d-k-127" value="" style="shape=tableRow;horizontal=0;startSize=0;swimlaneHead=0;swimlaneBody=0;fillColor=none;collapsible=0;dropTarget=0;points=[[0,0.5],[1,0.5]];portConstraint=eastwest;top=0;left=0;right=0;bottom=0;" parent="k0QNLuaNLbzrx7ui5d-k-117" vertex="1">
          <mxGeometry y="120" width="180" height="30" as="geometry" />
        </mxCell>
        <mxCell id="k0QNLuaNLbzrx7ui5d-k-128" value="" style="shape=partialRectangle;connectable=0;fillColor=none;top=0;left=0;bottom=0;right=0;editable=1;overflow=hidden;" parent="k0QNLuaNLbzrx7ui5d-k-127" vertex="1">
          <mxGeometry width="30" height="30" as="geometry">
            <mxRectangle width="30" height="30" as="alternateBounds" />
          </mxGeometry>
        </mxCell>
        <mxCell id="k0QNLuaNLbzrx7ui5d-k-129" value="Achternaam" style="shape=partialRectangle;connectable=0;fillColor=none;top=0;left=0;bottom=0;right=0;align=left;spacingLeft=6;overflow=hidden;" parent="k0QNLuaNLbzrx7ui5d-k-127" vertex="1">
          <mxGeometry x="30" width="150" height="30" as="geometry">
            <mxRectangle width="150" height="30" as="alternateBounds" />
          </mxGeometry>
        </mxCell>
        <mxCell id="k0QNLuaNLbzrx7ui5d-k-130" value="" style="endArrow=none;html=1;rounded=0;entryX=0.15;entryY=1.033;entryDx=0;entryDy=0;entryPerimeter=0;" parent="1" edge="1">
          <mxGeometry width="50" height="50" relative="1" as="geometry">
            <mxPoint x="625" y="470" as="sourcePoint" />
            <mxPoint x="625" y="290.99" as="targetPoint" />
          </mxGeometry>
        </mxCell>
        <mxCell id="k0QNLuaNLbzrx7ui5d-k-131" value="" style="shape=tableRow;horizontal=0;startSize=0;swimlaneHead=0;swimlaneBody=0;fillColor=none;collapsible=0;dropTarget=0;points=[[0,0.5],[1,0.5]];portConstraint=eastwest;top=0;left=0;right=0;bottom=0;" parent="1" vertex="1">
          <mxGeometry x="595" y="290" width="180" height="30" as="geometry" />
        </mxCell>
        <mxCell id="k0QNLuaNLbzrx7ui5d-k-132" value="" style="shape=partialRectangle;connectable=0;fillColor=none;top=0;left=0;bottom=0;right=0;editable=1;overflow=hidden;" parent="k0QNLuaNLbzrx7ui5d-k-131" vertex="1">
          <mxGeometry width="30" height="30" as="geometry">
            <mxRectangle width="30" height="30" as="alternateBounds" />
          </mxGeometry>
        </mxCell>
        <mxCell id="k0QNLuaNLbzrx7ui5d-k-133" value="Beroep" style="shape=partialRectangle;connectable=0;fillColor=none;top=0;left=0;bottom=0;right=0;align=left;spacingLeft=6;overflow=hidden;" parent="k0QNLuaNLbzrx7ui5d-k-131" vertex="1">
          <mxGeometry x="30" width="150" height="30" as="geometry">
            <mxRectangle width="150" height="30" as="alternateBounds" />
          </mxGeometry>
        </mxCell>
        <mxCell id="k0QNLuaNLbzrx7ui5d-k-134" value="" style="shape=tableRow;horizontal=0;startSize=0;swimlaneHead=0;swimlaneBody=0;fillColor=none;collapsible=0;dropTarget=0;points=[[0,0.5],[1,0.5]];portConstraint=eastwest;top=0;left=0;right=0;bottom=0;" parent="1" vertex="1">
          <mxGeometry x="615" y="280" width="180" height="30" as="geometry" />
        </mxCell>
        <mxCell id="k0QNLuaNLbzrx7ui5d-k-135" value="" style="shape=partialRectangle;connectable=0;fillColor=none;top=0;left=0;bottom=0;right=0;editable=1;overflow=hidden;" parent="k0QNLuaNLbzrx7ui5d-k-134" vertex="1">
          <mxGeometry width="30" height="30" as="geometry">
            <mxRectangle width="30" height="30" as="alternateBounds" />
          </mxGeometry>
        </mxCell>
        <mxCell id="k0QNLuaNLbzrx7ui5d-k-136" value="Woonplaats" style="shape=partialRectangle;connectable=0;fillColor=none;top=0;left=0;bottom=0;right=0;align=left;spacingLeft=6;overflow=hidden;" parent="1" vertex="1">
          <mxGeometry x="625" y="320" width="150" height="30" as="geometry">
            <mxRectangle width="150" height="30" as="alternateBounds" />
          </mxGeometry>
        </mxCell>
        <mxCell id="k0QNLuaNLbzrx7ui5d-k-137" value="" style="shape=tableRow;horizontal=0;startSize=0;swimlaneHead=0;swimlaneBody=0;fillColor=none;collapsible=0;dropTarget=0;points=[[0,0.5],[1,0.5]];portConstraint=eastwest;top=0;left=0;right=0;bottom=0;" parent="1" vertex="1">
          <mxGeometry x="595" y="350" width="180" height="30" as="geometry" />
        </mxCell>
        <mxCell id="k0QNLuaNLbzrx7ui5d-k-138" value="" style="shape=partialRectangle;connectable=0;fillColor=none;top=0;left=0;bottom=0;right=0;editable=1;overflow=hidden;" parent="k0QNLuaNLbzrx7ui5d-k-137" vertex="1">
          <mxGeometry width="30" height="30" as="geometry">
            <mxRectangle width="30" height="30" as="alternateBounds" />
          </mxGeometry>
        </mxCell>
        <mxCell id="k0QNLuaNLbzrx7ui5d-k-139" value="Postcode" style="shape=partialRectangle;connectable=0;fillColor=none;top=0;left=0;bottom=0;right=0;align=left;spacingLeft=6;overflow=hidden;" parent="k0QNLuaNLbzrx7ui5d-k-137" vertex="1">
          <mxGeometry x="30" width="150" height="30" as="geometry">
            <mxRectangle width="150" height="30" as="alternateBounds" />
          </mxGeometry>
        </mxCell>
        <mxCell id="k0QNLuaNLbzrx7ui5d-k-140" value="" style="shape=tableRow;horizontal=0;startSize=0;swimlaneHead=0;swimlaneBody=0;fillColor=none;collapsible=0;dropTarget=0;points=[[0,0.5],[1,0.5]];portConstraint=eastwest;top=0;left=0;right=0;bottom=0;" parent="1" vertex="1">
          <mxGeometry x="595" y="380" width="180" height="30" as="geometry" />
        </mxCell>
        <mxCell id="k0QNLuaNLbzrx7ui5d-k-141" value="" style="shape=partialRectangle;connectable=0;fillColor=none;top=0;left=0;bottom=0;right=0;editable=1;overflow=hidden;" parent="k0QNLuaNLbzrx7ui5d-k-140" vertex="1">
          <mxGeometry width="30" height="30" as="geometry">
            <mxRectangle width="30" height="30" as="alternateBounds" />
          </mxGeometry>
        </mxCell>
        <mxCell id="k0QNLuaNLbzrx7ui5d-k-142" value="status_aanvraag" style="shape=partialRectangle;connectable=0;fillColor=none;top=0;left=0;bottom=0;right=0;align=left;spacingLeft=6;overflow=hidden;" parent="k0QNLuaNLbzrx7ui5d-k-140" vertex="1">
          <mxGeometry x="30" width="150" height="30" as="geometry">
            <mxRectangle width="150" height="30" as="alternateBounds" />
          </mxGeometry>
        </mxCell>
        <mxCell id="k0QNLuaNLbzrx7ui5d-k-143" value="" style="shape=tableRow;horizontal=0;startSize=0;swimlaneHead=0;swimlaneBody=0;fillColor=none;collapsible=0;dropTarget=0;points=[[0,0.5],[1,0.5]];portConstraint=eastwest;top=0;left=0;right=0;bottom=0;" parent="1" vertex="1">
          <mxGeometry x="595" y="410" width="180" height="30" as="geometry" />
        </mxCell>
        <mxCell id="k0QNLuaNLbzrx7ui5d-k-144" value="" style="shape=partialRectangle;connectable=0;fillColor=none;top=0;left=0;bottom=0;right=0;editable=1;overflow=hidden;" parent="k0QNLuaNLbzrx7ui5d-k-143" vertex="1">
          <mxGeometry width="30" height="30" as="geometry">
            <mxRectangle width="30" height="30" as="alternateBounds" />
          </mxGeometry>
        </mxCell>
        <mxCell id="k0QNLuaNLbzrx7ui5d-k-145" value="datum_aanvraag" style="shape=partialRectangle;connectable=0;fillColor=none;top=0;left=0;bottom=0;right=0;align=left;spacingLeft=6;overflow=hidden;" parent="k0QNLuaNLbzrx7ui5d-k-143" vertex="1">
          <mxGeometry x="30" width="150" height="30" as="geometry">
            <mxRectangle width="150" height="30" as="alternateBounds" />
          </mxGeometry>
        </mxCell>
        <mxCell id="k0QNLuaNLbzrx7ui5d-k-146" value="" style="shape=tableRow;horizontal=0;startSize=0;swimlaneHead=0;swimlaneBody=0;fillColor=none;collapsible=0;dropTarget=0;points=[[0,0.5],[1,0.5]];portConstraint=eastwest;top=0;left=0;right=0;bottom=0;" parent="1" vertex="1">
          <mxGeometry x="595" y="440" width="180" height="30" as="geometry" />
        </mxCell>
        <mxCell id="k0QNLuaNLbzrx7ui5d-k-147" value="" style="shape=partialRectangle;connectable=0;fillColor=none;top=0;left=0;bottom=0;right=0;editable=1;overflow=hidden;" parent="k0QNLuaNLbzrx7ui5d-k-146" vertex="1">
          <mxGeometry width="30" height="30" as="geometry">
            <mxRectangle width="30" height="30" as="alternateBounds" />
          </mxGeometry>
        </mxCell>
        <mxCell id="k0QNLuaNLbzrx7ui5d-k-148" value="DIM_Blok velden" style="shape=partialRectangle;connectable=0;fillColor=none;top=0;left=0;bottom=0;right=0;align=left;spacingLeft=6;overflow=hidden;" parent="k0QNLuaNLbzrx7ui5d-k-146" vertex="1">
          <mxGeometry x="30" width="150" height="30" as="geometry">
            <mxRectangle width="150" height="30" as="alternateBounds" />
          </mxGeometry>
        </mxCell>
        <mxCell id="k0QNLuaNLbzrx7ui5d-k-149" value="OKV GEMASKEERD" style="shape=table;startSize=30;container=1;collapsible=1;childLayout=tableLayout;fixedRows=1;rowLines=0;fontStyle=1;align=center;resizeLast=1;fillColor=#f5f5f5;fontColor=#333333;strokeColor=#666666;" parent="1" vertex="1">
          <mxGeometry x="595" y="490" width="180" height="330" as="geometry" />
        </mxCell>
        <mxCell id="k0QNLuaNLbzrx7ui5d-k-150" value="" style="shape=tableRow;horizontal=0;startSize=0;swimlaneHead=0;swimlaneBody=0;fillColor=none;collapsible=0;dropTarget=0;points=[[0,0.5],[1,0.5]];portConstraint=eastwest;top=0;left=0;right=0;bottom=1;" parent="k0QNLuaNLbzrx7ui5d-k-149" vertex="1">
          <mxGeometry y="30" width="180" height="30" as="geometry" />
        </mxCell>
        <mxCell id="k0QNLuaNLbzrx7ui5d-k-151" value="PK" style="shape=partialRectangle;connectable=0;fillColor=none;top=0;left=0;bottom=0;right=0;fontStyle=1;overflow=hidden;" parent="k0QNLuaNLbzrx7ui5d-k-150" vertex="1">
          <mxGeometry width="30" height="30" as="geometry">
            <mxRectangle width="30" height="30" as="alternateBounds" />
          </mxGeometry>
        </mxCell>
        <mxCell id="k0QNLuaNLbzrx7ui5d-k-152" value="UniqueID" style="shape=partialRectangle;connectable=0;fillColor=none;top=0;left=0;bottom=0;right=0;align=left;spacingLeft=6;fontStyle=5;overflow=hidden;" parent="k0QNLuaNLbzrx7ui5d-k-150" vertex="1">
          <mxGeometry x="30" width="150" height="30" as="geometry">
            <mxRectangle width="150" height="30" as="alternateBounds" />
          </mxGeometry>
        </mxCell>
        <mxCell id="k0QNLuaNLbzrx7ui5d-k-153" value="" style="shape=tableRow;horizontal=0;startSize=0;swimlaneHead=0;swimlaneBody=0;fillColor=none;collapsible=0;dropTarget=0;points=[[0,0.5],[1,0.5]];portConstraint=eastwest;top=0;left=0;right=0;bottom=0;" parent="k0QNLuaNLbzrx7ui5d-k-149" vertex="1">
          <mxGeometry y="60" width="180" height="30" as="geometry" />
        </mxCell>
        <mxCell id="k0QNLuaNLbzrx7ui5d-k-154" value="" style="shape=partialRectangle;connectable=0;fillColor=none;top=0;left=0;bottom=0;right=0;editable=1;overflow=hidden;" parent="k0QNLuaNLbzrx7ui5d-k-153" vertex="1">
          <mxGeometry width="30" height="30" as="geometry">
            <mxRectangle width="30" height="30" as="alternateBounds" />
          </mxGeometry>
        </mxCell>
        <mxCell id="k0QNLuaNLbzrx7ui5d-k-155" value="BSN " style="shape=partialRectangle;connectable=0;fillColor=none;top=0;left=0;bottom=0;right=0;align=left;spacingLeft=6;overflow=hidden;" parent="k0QNLuaNLbzrx7ui5d-k-153" vertex="1">
          <mxGeometry x="30" width="150" height="30" as="geometry">
            <mxRectangle width="150" height="30" as="alternateBounds" />
          </mxGeometry>
        </mxCell>
        <mxCell id="k0QNLuaNLbzrx7ui5d-k-156" value="" style="shape=tableRow;horizontal=0;startSize=0;swimlaneHead=0;swimlaneBody=0;fillColor=none;collapsible=0;dropTarget=0;points=[[0,0.5],[1,0.5]];portConstraint=eastwest;top=0;left=0;right=0;bottom=0;" parent="k0QNLuaNLbzrx7ui5d-k-149" vertex="1">
          <mxGeometry y="90" width="180" height="30" as="geometry" />
        </mxCell>
        <mxCell id="k0QNLuaNLbzrx7ui5d-k-157" value="" style="shape=partialRectangle;connectable=0;fillColor=none;top=0;left=0;bottom=0;right=0;editable=1;overflow=hidden;" parent="k0QNLuaNLbzrx7ui5d-k-156" vertex="1">
          <mxGeometry width="30" height="30" as="geometry">
            <mxRectangle width="30" height="30" as="alternateBounds" />
          </mxGeometry>
        </mxCell>
        <mxCell id="k0QNLuaNLbzrx7ui5d-k-158" value="Voornaam" style="shape=partialRectangle;connectable=0;fillColor=none;top=0;left=0;bottom=0;right=0;align=left;spacingLeft=6;overflow=hidden;" parent="k0QNLuaNLbzrx7ui5d-k-156" vertex="1">
          <mxGeometry x="30" width="150" height="30" as="geometry">
            <mxRectangle width="150" height="30" as="alternateBounds" />
          </mxGeometry>
        </mxCell>
        <mxCell id="k0QNLuaNLbzrx7ui5d-k-159" value="" style="shape=tableRow;horizontal=0;startSize=0;swimlaneHead=0;swimlaneBody=0;fillColor=none;collapsible=0;dropTarget=0;points=[[0,0.5],[1,0.5]];portConstraint=eastwest;top=0;left=0;right=0;bottom=0;" parent="k0QNLuaNLbzrx7ui5d-k-149" vertex="1">
          <mxGeometry y="120" width="180" height="30" as="geometry" />
        </mxCell>
        <mxCell id="k0QNLuaNLbzrx7ui5d-k-160" value="" style="shape=partialRectangle;connectable=0;fillColor=none;top=0;left=0;bottom=0;right=0;editable=1;overflow=hidden;" parent="k0QNLuaNLbzrx7ui5d-k-159" vertex="1">
          <mxGeometry width="30" height="30" as="geometry">
            <mxRectangle width="30" height="30" as="alternateBounds" />
          </mxGeometry>
        </mxCell>
        <mxCell id="k0QNLuaNLbzrx7ui5d-k-161" value="Achternaam" style="shape=partialRectangle;connectable=0;fillColor=none;top=0;left=0;bottom=0;right=0;align=left;spacingLeft=6;overflow=hidden;" parent="k0QNLuaNLbzrx7ui5d-k-159" vertex="1">
          <mxGeometry x="30" width="150" height="30" as="geometry">
            <mxRectangle width="150" height="30" as="alternateBounds" />
          </mxGeometry>
        </mxCell>
        <mxCell id="k0QNLuaNLbzrx7ui5d-k-162" value="" style="endArrow=none;html=1;rounded=0;entryX=0.15;entryY=1.033;entryDx=0;entryDy=0;entryPerimeter=0;" parent="1" edge="1">
          <mxGeometry width="50" height="50" relative="1" as="geometry">
            <mxPoint x="625" y="820" as="sourcePoint" />
            <mxPoint x="625" y="640.99" as="targetPoint" />
          </mxGeometry>
        </mxCell>
        <mxCell id="k0QNLuaNLbzrx7ui5d-k-163" value="" style="shape=tableRow;horizontal=0;startSize=0;swimlaneHead=0;swimlaneBody=0;fillColor=none;collapsible=0;dropTarget=0;points=[[0,0.5],[1,0.5]];portConstraint=eastwest;top=0;left=0;right=0;bottom=0;" parent="1" vertex="1">
          <mxGeometry x="595" y="640" width="180" height="30" as="geometry" />
        </mxCell>
        <mxCell id="k0QNLuaNLbzrx7ui5d-k-164" value="" style="shape=partialRectangle;connectable=0;fillColor=none;top=0;left=0;bottom=0;right=0;editable=1;overflow=hidden;" parent="k0QNLuaNLbzrx7ui5d-k-163" vertex="1">
          <mxGeometry width="30" height="30" as="geometry">
            <mxRectangle width="30" height="30" as="alternateBounds" />
          </mxGeometry>
        </mxCell>
        <mxCell id="k0QNLuaNLbzrx7ui5d-k-165" value="Beroep" style="shape=partialRectangle;connectable=0;fillColor=none;top=0;left=0;bottom=0;right=0;align=left;spacingLeft=6;overflow=hidden;" parent="k0QNLuaNLbzrx7ui5d-k-163" vertex="1">
          <mxGeometry x="30" width="150" height="30" as="geometry">
            <mxRectangle width="150" height="30" as="alternateBounds" />
          </mxGeometry>
        </mxCell>
        <mxCell id="k0QNLuaNLbzrx7ui5d-k-166" value="" style="shape=tableRow;horizontal=0;startSize=0;swimlaneHead=0;swimlaneBody=0;fillColor=none;collapsible=0;dropTarget=0;points=[[0,0.5],[1,0.5]];portConstraint=eastwest;top=0;left=0;right=0;bottom=0;" parent="1" vertex="1">
          <mxGeometry x="615" y="630" width="180" height="30" as="geometry" />
        </mxCell>
        <mxCell id="k0QNLuaNLbzrx7ui5d-k-167" value="" style="shape=partialRectangle;connectable=0;fillColor=none;top=0;left=0;bottom=0;right=0;editable=1;overflow=hidden;" parent="k0QNLuaNLbzrx7ui5d-k-166" vertex="1">
          <mxGeometry width="30" height="30" as="geometry">
            <mxRectangle width="30" height="30" as="alternateBounds" />
          </mxGeometry>
        </mxCell>
        <mxCell id="k0QNLuaNLbzrx7ui5d-k-168" value="Woonplaats" style="shape=partialRectangle;connectable=0;fillColor=none;top=0;left=0;bottom=0;right=0;align=left;spacingLeft=6;overflow=hidden;" parent="1" vertex="1">
          <mxGeometry x="625" y="670" width="150" height="30" as="geometry">
            <mxRectangle width="150" height="30" as="alternateBounds" />
          </mxGeometry>
        </mxCell>
        <mxCell id="k0QNLuaNLbzrx7ui5d-k-169" value="" style="shape=tableRow;horizontal=0;startSize=0;swimlaneHead=0;swimlaneBody=0;fillColor=none;collapsible=0;dropTarget=0;points=[[0,0.5],[1,0.5]];portConstraint=eastwest;top=0;left=0;right=0;bottom=0;" parent="1" vertex="1">
          <mxGeometry x="595" y="700" width="180" height="30" as="geometry" />
        </mxCell>
        <mxCell id="k0QNLuaNLbzrx7ui5d-k-170" value="" style="shape=partialRectangle;connectable=0;fillColor=none;top=0;left=0;bottom=0;right=0;editable=1;overflow=hidden;" parent="k0QNLuaNLbzrx7ui5d-k-169" vertex="1">
          <mxGeometry width="30" height="30" as="geometry">
            <mxRectangle width="30" height="30" as="alternateBounds" />
          </mxGeometry>
        </mxCell>
        <mxCell id="k0QNLuaNLbzrx7ui5d-k-171" value="Postcode" style="shape=partialRectangle;connectable=0;fillColor=none;top=0;left=0;bottom=0;right=0;align=left;spacingLeft=6;overflow=hidden;" parent="k0QNLuaNLbzrx7ui5d-k-169" vertex="1">
          <mxGeometry x="30" width="150" height="30" as="geometry">
            <mxRectangle width="150" height="30" as="alternateBounds" />
          </mxGeometry>
        </mxCell>
        <mxCell id="k0QNLuaNLbzrx7ui5d-k-172" value="" style="shape=tableRow;horizontal=0;startSize=0;swimlaneHead=0;swimlaneBody=0;fillColor=none;collapsible=0;dropTarget=0;points=[[0,0.5],[1,0.5]];portConstraint=eastwest;top=0;left=0;right=0;bottom=0;" parent="1" vertex="1">
          <mxGeometry x="595" y="730" width="180" height="30" as="geometry" />
        </mxCell>
        <mxCell id="k0QNLuaNLbzrx7ui5d-k-173" value="" style="shape=partialRectangle;connectable=0;fillColor=none;top=0;left=0;bottom=0;right=0;editable=1;overflow=hidden;" parent="k0QNLuaNLbzrx7ui5d-k-172" vertex="1">
          <mxGeometry width="30" height="30" as="geometry">
            <mxRectangle width="30" height="30" as="alternateBounds" />
          </mxGeometry>
        </mxCell>
        <mxCell id="k0QNLuaNLbzrx7ui5d-k-174" value="status_aanvraag" style="shape=partialRectangle;connectable=0;fillColor=none;top=0;left=0;bottom=0;right=0;align=left;spacingLeft=6;overflow=hidden;" parent="k0QNLuaNLbzrx7ui5d-k-172" vertex="1">
          <mxGeometry x="30" width="150" height="30" as="geometry">
            <mxRectangle width="150" height="30" as="alternateBounds" />
          </mxGeometry>
        </mxCell>
        <mxCell id="k0QNLuaNLbzrx7ui5d-k-175" value="" style="shape=tableRow;horizontal=0;startSize=0;swimlaneHead=0;swimlaneBody=0;fillColor=none;collapsible=0;dropTarget=0;points=[[0,0.5],[1,0.5]];portConstraint=eastwest;top=0;left=0;right=0;bottom=0;" parent="1" vertex="1">
          <mxGeometry x="595" y="760" width="180" height="30" as="geometry" />
        </mxCell>
        <mxCell id="k0QNLuaNLbzrx7ui5d-k-176" value="" style="shape=partialRectangle;connectable=0;fillColor=none;top=0;left=0;bottom=0;right=0;editable=1;overflow=hidden;" parent="k0QNLuaNLbzrx7ui5d-k-175" vertex="1">
          <mxGeometry width="30" height="30" as="geometry">
            <mxRectangle width="30" height="30" as="alternateBounds" />
          </mxGeometry>
        </mxCell>
        <mxCell id="k0QNLuaNLbzrx7ui5d-k-177" value="Row 3" style="shape=partialRectangle;connectable=0;fillColor=none;top=0;left=0;bottom=0;right=0;align=left;spacingLeft=6;overflow=hidden;" parent="k0QNLuaNLbzrx7ui5d-k-175" vertex="1">
          <mxGeometry x="30" width="150" height="30" as="geometry">
            <mxRectangle width="150" height="30" as="alternateBounds" />
          </mxGeometry>
        </mxCell>
        <mxCell id="k0QNLuaNLbzrx7ui5d-k-178" value="" style="shape=tableRow;horizontal=0;startSize=0;swimlaneHead=0;swimlaneBody=0;fillColor=none;collapsible=0;dropTarget=0;points=[[0,0.5],[1,0.5]];portConstraint=eastwest;top=0;left=0;right=0;bottom=0;" parent="1" vertex="1">
          <mxGeometry x="595" y="790" width="180" height="30" as="geometry" />
        </mxCell>
        <mxCell id="k0QNLuaNLbzrx7ui5d-k-179" value="" style="shape=partialRectangle;connectable=0;fillColor=none;top=0;left=0;bottom=0;right=0;editable=1;overflow=hidden;" parent="k0QNLuaNLbzrx7ui5d-k-178" vertex="1">
          <mxGeometry width="30" height="30" as="geometry">
            <mxRectangle width="30" height="30" as="alternateBounds" />
          </mxGeometry>
        </mxCell>
        <mxCell id="k0QNLuaNLbzrx7ui5d-k-180" value="DIM_Blok velden" style="shape=partialRectangle;connectable=0;fillColor=none;top=0;left=0;bottom=0;right=0;align=left;spacingLeft=6;overflow=hidden;" parent="k0QNLuaNLbzrx7ui5d-k-178" vertex="1">
          <mxGeometry x="30" width="150" height="30" as="geometry">
            <mxRectangle width="150" height="30" as="alternateBounds" />
          </mxGeometry>
        </mxCell>
        <mxCell id="k0QNLuaNLbzrx7ui5d-k-181" value="" style="endArrow=classic;html=1;rounded=0;exitX=1;exitY=0.5;exitDx=0;exitDy=0;entryX=0;entryY=0.5;entryDx=0;entryDy=0;" parent="1" source="k0QNLuaNLbzrx7ui5d-k-37" target="k0QNLuaNLbzrx7ui5d-k-121" edge="1">
          <mxGeometry width="50" height="50" relative="1" as="geometry">
            <mxPoint x="460" y="120" as="sourcePoint" />
            <mxPoint x="520" y="155" as="targetPoint" />
          </mxGeometry>
        </mxCell>
        <mxCell id="k0QNLuaNLbzrx7ui5d-k-182" value="" style="endArrow=classic;html=1;rounded=0;exitX=1;exitY=0.5;exitDx=0;exitDy=0;entryX=0;entryY=0;entryDx=0;entryDy=0;entryPerimeter=0;" parent="1" source="k0QNLuaNLbzrx7ui5d-k-43" target="k0QNLuaNLbzrx7ui5d-k-127" edge="1">
          <mxGeometry width="50" height="50" relative="1" as="geometry">
            <mxPoint x="470" y="395" as="sourcePoint" />
            <mxPoint x="530" y="165" as="targetPoint" />
          </mxGeometry>
        </mxCell>
        <mxCell id="k0QNLuaNLbzrx7ui5d-k-183" value="" style="endArrow=classic;html=1;rounded=0;entryX=0;entryY=0.5;entryDx=0;entryDy=0;" parent="1" target="k0QNLuaNLbzrx7ui5d-k-131" edge="1">
          <mxGeometry width="50" height="50" relative="1" as="geometry">
            <mxPoint x="460" y="500" as="sourcePoint" />
            <mxPoint x="605" y="270" as="targetPoint" />
          </mxGeometry>
        </mxCell>
        <mxCell id="k0QNLuaNLbzrx7ui5d-k-184" value="" style="endArrow=classic;html=1;rounded=0;entryX=0;entryY=0.5;entryDx=0;entryDy=0;" parent="1" target="k0QNLuaNLbzrx7ui5d-k-163" edge="1">
          <mxGeometry width="50" height="50" relative="1" as="geometry">
            <mxPoint x="460" y="500" as="sourcePoint" />
            <mxPoint x="605" y="315" as="targetPoint" />
          </mxGeometry>
        </mxCell>
        <mxCell id="k0QNLuaNLbzrx7ui5d-k-185" value="" style="endArrow=classic;html=1;rounded=0;exitX=1;exitY=0.5;exitDx=0;exitDy=0;" parent="1" source="k0QNLuaNLbzrx7ui5d-k-40" edge="1">
          <mxGeometry width="50" height="50" relative="1" as="geometry">
            <mxPoint x="470" y="510" as="sourcePoint" />
            <mxPoint x="590" y="570" as="targetPoint" />
          </mxGeometry>
        </mxCell>
        <mxCell id="k0QNLuaNLbzrx7ui5d-k-186" value="&lt;h1&gt;Waarom toch 1 tabel ipv 4&lt;/h1&gt;&lt;div&gt;&lt;span style=&quot;background-color: initial;&quot;&gt;- Eenvoud in codebase&lt;/span&gt;&lt;br&gt;&lt;/div&gt;&lt;div&gt;- het is een &#39;black box&#39; proces. En daarmee mag je alle performance tunings activiteiten gebruiken&lt;/div&gt;&lt;div&gt;- Genereren van Tabel is stuk eenvoudiger&lt;/div&gt;&lt;div&gt;- Genereren van gemaskeerd View en ongemaskeerd view is erg eenvoudig,&amp;nbsp;&lt;/div&gt;&lt;div&gt;&lt;span style=&quot;background-color: initial;&quot;&gt;-&amp;nbsp;&lt;/span&gt;&lt;br&gt;&lt;/div&gt;" style="text;html=1;strokeColor=#666666;fillColor=#f5f5f5;spacing=5;spacingTop=-20;whiteSpace=wrap;overflow=hidden;rounded=0;fontColor=#333333;" parent="1" vertex="1">
          <mxGeometry x="450" y="930" width="360" height="210" as="geometry" />
        </mxCell>
      </root>
    </mxGraphModel>
  </diagram>
  <diagram id="eQYCfogeImIEmu2ojL2v" name="Airflow">
    <mxGraphModel dx="2058" dy="1180" grid="1" gridSize="10" guides="1" tooltips="1" connect="1" arrows="1" fold="1" page="1" pageScale="1" pageWidth="827" pageHeight="1169" math="0" shadow="0">
      <root>
        <mxCell id="0" />
        <mxCell id="1" parent="0" />
        <mxCell id="kUq02NynOrI4z2O7hxJo-1" value="AirFlow uitleg" style="rounded=1;whiteSpace=wrap;html=1;strokeColor=#6c8ebf;fillColor=#dae8fc;" parent="1" vertex="1">
          <mxGeometry x="330" y="170" width="120" height="60" as="geometry" />
        </mxCell>
        <mxCell id="kUq02NynOrI4z2O7hxJo-2" value="&lt;h1&gt;Airflow kort uitgelegd&lt;/h1&gt;&lt;p&gt;Airflow is gebouwd voor &#39;scheduling&#39; en monitoring&lt;/p&gt;&lt;p&gt;- Concepten die worden gebruikt zijn de volgende&amp;nbsp;&lt;/p&gt;&lt;p&gt;- Directed Acyclic Graph ( is a collection of all the tasks you want to ru, organized in a way that refelcts their relations and dependcies&amp;nbsp; )&lt;br&gt;&lt;/p&gt;&lt;p&gt;- Workers die de specieke taks uitvoeren&lt;/p&gt;&lt;p&gt;- Monitoring van de taken&lt;/p&gt;&lt;p&gt;- Sensors op een DAG te starten.&lt;/p&gt;&lt;p&gt;- gebaseerd op python&lt;/p&gt;&lt;p&gt;- self managed of fully managed services&lt;/p&gt;&lt;br&gt;&lt;p&gt;&lt;br&gt;&lt;/p&gt;" style="text;html=1;strokeColor=none;fillColor=none;spacing=5;spacingTop=-20;whiteSpace=wrap;overflow=hidden;rounded=0;" parent="1" vertex="1">
          <mxGeometry x="100" y="340" width="540" height="320" as="geometry" />
        </mxCell>
        <mxCell id="kUq02NynOrI4z2O7hxJo-4" value="" style="shape=image;verticalLabelPosition=bottom;labelBackgroundColor=default;verticalAlign=top;aspect=fixed;imageAspect=0;image=https://cloud.google.com/static/composer/docs/images/workflow-group-dags.png;" parent="1" vertex="1">
          <mxGeometry x="370" y="460" width="520" height="221" as="geometry" />
        </mxCell>
        <mxCell id="kUq02NynOrI4z2O7hxJo-5" value="&lt;span style=&quot;color: rgb(32, 33, 36); font-family: arial, sans-serif; font-size: 14px; font-style: normal; font-variant-ligatures: normal; font-variant-caps: normal; letter-spacing: normal; orphans: 2; text-align: left; text-indent: 0px; text-transform: none; widows: 2; word-spacing: 0px; -webkit-text-stroke-width: 0px; background-color: rgb(255, 255, 255); text-decoration-thickness: initial; text-decoration-style: initial; text-decoration-color: initial; float: none; display: inline !important;&quot;&gt;x is&amp;nbsp;&lt;/span&gt;&lt;span style=&quot;color: rgb(32, 33, 36); font-family: arial, sans-serif; font-size: 14px; font-style: normal; font-variant-ligatures: normal; font-variant-caps: normal; letter-spacing: normal; orphans: 2; text-align: left; text-indent: 0px; text-transform: none; widows: 2; word-spacing: 0px; -webkit-text-stroke-width: 0px; background-color: rgb(255, 255, 255); text-decoration-thickness: initial; text-decoration-style: initial; text-decoration-color: initial;&quot;&gt;a collection of all the tasks you want to run, organized in a way that reflects their relationships and dependencies&lt;/span&gt;&lt;span style=&quot;color: rgb(32, 33, 36); font-family: arial, sans-serif; font-size: 14px; font-style: normal; font-variant-ligatures: normal; font-variant-caps: normal; letter-spacing: normal; orphans: 2; text-align: left; text-indent: 0px; text-transform: none; widows: 2; word-spacing: 0px; -webkit-text-stroke-width: 0px; background-color: rgb(255, 255, 255); text-decoration-thickness: initial; text-decoration-style: initial; text-decoration-color: initial; float: none; display: inline !important;&quot;&gt;.&lt;/span&gt;" style="text;whiteSpace=wrap;html=1;" parent="1" vertex="1">
          <mxGeometry x="380" y="930" width="560" height="60" as="geometry" />
        </mxCell>
      </root>
    </mxGraphModel>
  </diagram>
  <diagram id="3qjTa8pn1kXVX82ThSDc" name="Voordelen">
    <mxGraphModel dx="2027" dy="1156" grid="1" gridSize="10" guides="1" tooltips="1" connect="1" arrows="1" fold="1" page="1" pageScale="1" pageWidth="827" pageHeight="1169" math="0" shadow="0">
      <root>
        <mxCell id="0" />
        <mxCell id="1" parent="0" />
        <mxCell id="gMznbT87uhVS2J1pXVOR-1" value="&lt;h1&gt;&lt;span style=&quot;background-color: initial;&quot;&gt;Voordelen&amp;nbsp;&lt;/span&gt;&lt;/h1&gt;&lt;h1&gt;&lt;span style=&quot;background-color: initial; font-size: 13px; font-weight: normal;&quot;&gt;bla&amp;nbsp;&lt;/span&gt;&lt;br&gt;&lt;/h1&gt;&lt;div&gt;&lt;span style=&quot;background-color: initial; font-size: 13px; font-weight: normal;&quot;&gt;- TRIGGERBASED&lt;/span&gt;&lt;/div&gt;&lt;div&gt;&lt;span style=&quot;background-color: initial; font-size: 13px; font-weight: normal;&quot;&gt;- FUL PROCES LOG&lt;/span&gt;&lt;/div&gt;&lt;div&gt;- Realtime MONITORING&amp;nbsp;&lt;/div&gt;&lt;div&gt;- Realtime alering&amp;nbsp;&lt;/div&gt;&lt;div&gt;- Atomair niveau terug naar Tabel ipv &#39;Bron&#39;&lt;/div&gt;&lt;div&gt;- Multithreading op verwerking&amp;nbsp; (gecontroleerd door Airflow)&lt;/div&gt;&lt;div&gt;- Schema at drift&amp;nbsp; (tabel wijzigingen worden waarmogelijk automatisch doorgevoerd tot aan OKV laag.)&amp;nbsp;&amp;nbsp;&lt;/div&gt;&lt;div&gt;&lt;span style=&quot;white-space: pre;&quot;&gt;	&lt;/span&gt;- dit geldt met name voor velden die worden verlengt. (varchar, number) , bij echte datatype conversies zal dit extra moeten worden gecontroleerd worden door een operator. (onderdeel van OPS)&amp;nbsp;&lt;br&gt;&lt;/div&gt;&lt;div&gt;&amp;nbsp; &amp;nbsp; &amp;nbsp; &amp;nbsp; -&amp;nbsp;&lt;/div&gt;&lt;div&gt;&lt;br&gt;&lt;/div&gt;&lt;div&gt;&lt;br&gt;&lt;/div&gt;&lt;div&gt;In de praktijk&lt;/div&gt;&lt;div&gt;&lt;span style=&quot;background-color: initial;&quot;&gt;- Performance is 4 keer zo snel&amp;nbsp; =&amp;gt; komt met name door verkleinen van het aantal tabellen. en eenvoudige structuur&lt;/span&gt;&lt;br&gt;&lt;/div&gt;&lt;div&gt;&lt;span style=&quot;background-color: initial;&quot;&gt;&lt;br&gt;&lt;/span&gt;&lt;/div&gt;&lt;div&gt;&lt;span style=&quot;background-color: initial;&quot;&gt;&lt;br&gt;&lt;/span&gt;&lt;/div&gt;&lt;div&gt;&lt;span style=&quot;background-color: initial;&quot;&gt;&lt;br&gt;&lt;/span&gt;&lt;/div&gt;" style="text;html=1;strokeColor=none;fillColor=none;spacing=5;spacingTop=-20;whiteSpace=wrap;overflow=hidden;rounded=0;fontSize=13;" parent="1" vertex="1">
          <mxGeometry x="50" y="120" width="760" height="570" as="geometry" />
        </mxCell>
      </root>
    </mxGraphModel>
  </diagram>
  <diagram id="quF4b5yrSc5o8f0jERmp" name="Security">
    <mxGraphModel dx="2027" dy="1156" grid="1" gridSize="10" guides="1" tooltips="1" connect="1" arrows="1" fold="1" page="1" pageScale="1" pageWidth="827" pageHeight="1169" math="0" shadow="0">
      <root>
        <mxCell id="0" />
        <mxCell id="1" parent="0" />
        <mxCell id="i0F-pnGfvZY_18gK5QLw-4" value="Security" style="rounded=0;whiteSpace=wrap;html=1;verticalAlign=top;" parent="1" vertex="1">
          <mxGeometry x="400" y="120" width="360" height="370" as="geometry" />
        </mxCell>
        <mxCell id="i0F-pnGfvZY_18gK5QLw-5" value="Key Management Services&lt;br&gt;Oplossing" style="rounded=0;whiteSpace=wrap;html=1;" parent="1" vertex="1">
          <mxGeometry x="600" y="160" width="120" height="60" as="geometry" />
        </mxCell>
        <mxCell id="i0F-pnGfvZY_18gK5QLw-6" value="" style="shape=cylinder3;whiteSpace=wrap;html=1;boundedLbl=1;backgroundOutline=1;size=15;" parent="1" vertex="1">
          <mxGeometry x="600" y="240" width="120" height="50" as="geometry" />
        </mxCell>
        <mxCell id="i0F-pnGfvZY_18gK5QLw-7" value="Azure Devops&lt;br&gt;" style="rounded=1;whiteSpace=wrap;html=1;" parent="1" vertex="1">
          <mxGeometry x="40" y="560" width="120" height="60" as="geometry" />
        </mxCell>
      </root>
    </mxGraphModel>
  </diagram>
  <diagram id="pmHMAjRhgMmwTR8-qHL5" name="Kubernetes">
    <mxGraphModel dx="2027" dy="1156" grid="1" gridSize="10" guides="1" tooltips="1" connect="1" arrows="1" fold="1" page="1" pageScale="1" pageWidth="827" pageHeight="1169" math="0" shadow="0">
      <root>
        <mxCell id="0" />
        <mxCell id="1" parent="0" />
        <mxCell id="2C5ub-7KFf2A0uj3M5vo-1" value="Kubernetes" style="rounded=0;whiteSpace=wrap;html=1;verticalAlign=top;" parent="1" vertex="1">
          <mxGeometry x="40" y="120" width="480" height="390" as="geometry" />
        </mxCell>
        <mxCell id="2C5ub-7KFf2A0uj3M5vo-2" value="Python Script" style="rounded=1;whiteSpace=wrap;html=1;" parent="1" vertex="1">
          <mxGeometry x="80" y="330" width="120" height="60" as="geometry" />
        </mxCell>
        <mxCell id="2C5ub-7KFf2A0uj3M5vo-3" value="SQL commando&#39;s op de database" style="rounded=1;whiteSpace=wrap;html=1;" parent="1" vertex="1">
          <mxGeometry x="80" y="430" width="120" height="60" as="geometry" />
        </mxCell>
        <mxCell id="2C5ub-7KFf2A0uj3M5vo-4" value="Python Script" style="rounded=1;whiteSpace=wrap;html=1;" parent="1" vertex="1">
          <mxGeometry x="80" y="555" width="120" height="60" as="geometry" />
        </mxCell>
        <mxCell id="DekYL1PJ8watKCT2YjPe-1" value="Generieke SQL Execution Script" style="rounded=1;whiteSpace=wrap;html=1;" parent="1" vertex="1">
          <mxGeometry x="240" y="330" width="120" height="60" as="geometry" />
        </mxCell>
      </root>
    </mxGraphModel>
  </diagram>
  <diagram id="XOFf7q1josqjcOBcCWAk" name="Pagina-9">
    <mxGraphModel dx="2027" dy="1156" grid="1" gridSize="10" guides="1" tooltips="1" connect="1" arrows="1" fold="1" page="1" pageScale="1" pageWidth="827" pageHeight="1169" math="0" shadow="0">
      <root>
        <mxCell id="0" />
        <mxCell id="1" parent="0" />
        <mxCell id="G82BBoJB5O3xo3l0odEl-14" value="Kuberneters ? /&amp;nbsp; Linux box met Dockers" style="rounded=0;whiteSpace=wrap;html=1;fillColor=#fff2cc;strokeColor=#d6b656;verticalAlign=top;" parent="1" vertex="1">
          <mxGeometry x="125" y="190" width="550" height="140" as="geometry" />
        </mxCell>
        <mxCell id="G82BBoJB5O3xo3l0odEl-1" value="" style="shape=cylinder3;whiteSpace=wrap;html=1;boundedLbl=1;backgroundOutline=1;size=15;" parent="1" vertex="1">
          <mxGeometry x="20" y="250" width="60" height="80" as="geometry" />
        </mxCell>
        <mxCell id="G82BBoJB5O3xo3l0odEl-2" value="Airflow&lt;br&gt;(Generieke DAG)" style="rounded=1;whiteSpace=wrap;html=1;" parent="1" vertex="1">
          <mxGeometry x="235" y="60" width="130" height="70" as="geometry" />
        </mxCell>
        <mxCell id="G82BBoJB5O3xo3l0odEl-3" value="Generiek Script" style="rounded=1;whiteSpace=wrap;html=1;" parent="1" vertex="1">
          <mxGeometry x="160" y="240" width="280" height="60" as="geometry" />
        </mxCell>
        <mxCell id="G82BBoJB5O3xo3l0odEl-4" value="API Call&amp;nbsp;" style="shape=callout;whiteSpace=wrap;html=1;perimeter=calloutPerimeter;position2=0.22;" parent="1" vertex="1">
          <mxGeometry x="80" y="110" width="120" height="80" as="geometry" />
        </mxCell>
        <mxCell id="G82BBoJB5O3xo3l0odEl-5" value="" style="endArrow=classic;html=1;rounded=0;exitX=0.5;exitY=1;exitDx=0;exitDy=0;entryX=0.5;entryY=0;entryDx=0;entryDy=0;" parent="1" source="G82BBoJB5O3xo3l0odEl-2" target="G82BBoJB5O3xo3l0odEl-3" edge="1">
          <mxGeometry relative="1" as="geometry">
            <mxPoint x="360" y="590" as="sourcePoint" />
            <mxPoint x="460" y="590" as="targetPoint" />
          </mxGeometry>
        </mxCell>
        <mxCell id="G82BBoJB5O3xo3l0odEl-6" value="" style="shape=message;html=1;outlineConnect=0;" parent="G82BBoJB5O3xo3l0odEl-5" vertex="1">
          <mxGeometry width="20" height="14" relative="1" as="geometry">
            <mxPoint x="-10" y="-7" as="offset" />
          </mxGeometry>
        </mxCell>
        <mxCell id="G82BBoJB5O3xo3l0odEl-7" value="" style="endArrow=classic;html=1;rounded=0;exitX=1.017;exitY=0.438;exitDx=0;exitDy=0;entryX=0.25;entryY=0;entryDx=0;entryDy=0;exitPerimeter=0;" parent="1" source="G82BBoJB5O3xo3l0odEl-4" target="G82BBoJB5O3xo3l0odEl-3" edge="1">
          <mxGeometry relative="1" as="geometry">
            <mxPoint x="310" y="140" as="sourcePoint" />
            <mxPoint x="310" y="250" as="targetPoint" />
          </mxGeometry>
        </mxCell>
        <mxCell id="G82BBoJB5O3xo3l0odEl-8" value="" style="shape=message;html=1;outlineConnect=0;" parent="G82BBoJB5O3xo3l0odEl-7" vertex="1">
          <mxGeometry width="20" height="14" relative="1" as="geometry">
            <mxPoint x="-10" y="-7" as="offset" />
          </mxGeometry>
        </mxCell>
        <mxCell id="G82BBoJB5O3xo3l0odEl-9" value="xDIM" style="shape=cylinder3;whiteSpace=wrap;html=1;boundedLbl=1;backgroundOutline=1;size=15;verticalAlign=top;fontSize=20;" parent="1" vertex="1">
          <mxGeometry x="50" y="360" width="500" height="330" as="geometry" />
        </mxCell>
        <mxCell id="G82BBoJB5O3xo3l0odEl-10" value="" style="endArrow=classic;html=1;rounded=0;exitX=0.5;exitY=1;exitDx=0;exitDy=0;entryX=0.5;entryY=0;entryDx=0;entryDy=0;entryPerimeter=0;" parent="1" source="G82BBoJB5O3xo3l0odEl-3" target="G82BBoJB5O3xo3l0odEl-9" edge="1">
          <mxGeometry width="50" height="50" relative="1" as="geometry">
            <mxPoint x="390" y="620" as="sourcePoint" />
            <mxPoint x="440" y="570" as="targetPoint" />
          </mxGeometry>
        </mxCell>
        <mxCell id="G82BBoJB5O3xo3l0odEl-11" value="&amp;lt;&amp;lt;view&amp;gt;&amp;gt;&lt;br&gt;Transformation View" style="shape=folder;html=1;tabWidth=80;tabHeight=40;tabPosition=left;align=left;verticalAlign=top;spacingLeft=10;whiteSpace=wrap;" parent="1" vertex="1">
          <mxGeometry x="370" y="410" width="160" height="120" as="geometry" />
        </mxCell>
        <mxCell id="G82BBoJB5O3xo3l0odEl-12" value="Insert&lt;br&gt;Delete&lt;br&gt;Update" style="text;html=1;strokeColor=none;fillColor=none;align=center;verticalAlign=middle;whiteSpace=wrap;rounded=0;" parent="1" vertex="1">
          <mxGeometry x="460" y="460" width="60" height="55" as="geometry" />
        </mxCell>
        <mxCell id="G82BBoJB5O3xo3l0odEl-13" value="Insert&lt;br&gt;Delete&lt;br&gt;Update" style="text;html=1;strokeColor=none;fillColor=none;align=center;verticalAlign=middle;whiteSpace=wrap;rounded=0;" parent="1" vertex="1">
          <mxGeometry x="370" y="240" width="60" height="55" as="geometry" />
        </mxCell>
        <mxCell id="G82BBoJB5O3xo3l0odEl-15" value="transformation View" style="shape=folder;html=1;tabWidth=80;tabHeight=40;tabPosition=left;align=left;verticalAlign=top;spacingLeft=10;whiteSpace=wrap;" parent="1" vertex="1">
          <mxGeometry x="240" y="580" width="70" height="70" as="geometry" />
        </mxCell>
        <mxCell id="G82BBoJB5O3xo3l0odEl-29" value="Query" style="shape=table;startSize=30;container=1;collapsible=0;childLayout=tableLayout;fixedRows=1;rowLines=0;fontStyle=0;strokeColor=default;fontSize=16;" parent="1" vertex="1">
          <mxGeometry x="70" y="540" width="120" height="120" as="geometry" />
        </mxCell>
        <mxCell id="G82BBoJB5O3xo3l0odEl-30" value="" style="shape=tableRow;horizontal=0;startSize=0;swimlaneHead=0;swimlaneBody=0;top=0;left=0;bottom=0;right=0;collapsible=0;dropTarget=0;fillColor=none;points=[[0,0.5],[1,0.5]];portConstraint=eastwest;strokeColor=inherit;fontSize=16;" parent="G82BBoJB5O3xo3l0odEl-29" vertex="1">
          <mxGeometry y="30" width="120" height="30" as="geometry" />
        </mxCell>
        <mxCell id="G82BBoJB5O3xo3l0odEl-31" value="1" style="shape=partialRectangle;html=1;whiteSpace=wrap;connectable=0;fillColor=none;top=0;left=0;bottom=0;right=0;overflow=hidden;pointerEvents=1;strokeColor=inherit;fontSize=16;" parent="G82BBoJB5O3xo3l0odEl-30" vertex="1">
          <mxGeometry width="27" height="30" as="geometry">
            <mxRectangle width="27" height="30" as="alternateBounds" />
          </mxGeometry>
        </mxCell>
        <mxCell id="G82BBoJB5O3xo3l0odEl-32" value="Value 1" style="shape=partialRectangle;html=1;whiteSpace=wrap;connectable=0;fillColor=none;top=0;left=0;bottom=0;right=0;align=left;spacingLeft=6;overflow=hidden;strokeColor=inherit;fontSize=16;" parent="G82BBoJB5O3xo3l0odEl-30" vertex="1">
          <mxGeometry x="27" width="93" height="30" as="geometry">
            <mxRectangle width="93" height="30" as="alternateBounds" />
          </mxGeometry>
        </mxCell>
        <mxCell id="G82BBoJB5O3xo3l0odEl-33" value="" style="shape=tableRow;horizontal=0;startSize=0;swimlaneHead=0;swimlaneBody=0;top=0;left=0;bottom=0;right=0;collapsible=0;dropTarget=0;fillColor=none;points=[[0,0.5],[1,0.5]];portConstraint=eastwest;strokeColor=inherit;fontSize=16;" parent="G82BBoJB5O3xo3l0odEl-29" vertex="1">
          <mxGeometry y="60" width="120" height="30" as="geometry" />
        </mxCell>
        <mxCell id="G82BBoJB5O3xo3l0odEl-34" value="2" style="shape=partialRectangle;html=1;whiteSpace=wrap;connectable=0;fillColor=none;top=0;left=0;bottom=0;right=0;overflow=hidden;strokeColor=inherit;fontSize=16;" parent="G82BBoJB5O3xo3l0odEl-33" vertex="1">
          <mxGeometry width="27" height="30" as="geometry">
            <mxRectangle width="27" height="30" as="alternateBounds" />
          </mxGeometry>
        </mxCell>
        <mxCell id="G82BBoJB5O3xo3l0odEl-35" value="Value 2" style="shape=partialRectangle;html=1;whiteSpace=wrap;connectable=0;fillColor=none;top=0;left=0;bottom=0;right=0;align=left;spacingLeft=6;overflow=hidden;strokeColor=inherit;fontSize=16;" parent="G82BBoJB5O3xo3l0odEl-33" vertex="1">
          <mxGeometry x="27" width="93" height="30" as="geometry">
            <mxRectangle width="93" height="30" as="alternateBounds" />
          </mxGeometry>
        </mxCell>
        <mxCell id="G82BBoJB5O3xo3l0odEl-36" value="" style="shape=tableRow;horizontal=0;startSize=0;swimlaneHead=0;swimlaneBody=0;top=0;left=0;bottom=0;right=0;collapsible=0;dropTarget=0;fillColor=none;points=[[0,0.5],[1,0.5]];portConstraint=eastwest;strokeColor=inherit;fontSize=16;" parent="G82BBoJB5O3xo3l0odEl-29" vertex="1">
          <mxGeometry y="90" width="120" height="30" as="geometry" />
        </mxCell>
        <mxCell id="G82BBoJB5O3xo3l0odEl-37" value="3" style="shape=partialRectangle;html=1;whiteSpace=wrap;connectable=0;fillColor=none;top=0;left=0;bottom=0;right=0;overflow=hidden;strokeColor=inherit;fontSize=16;" parent="G82BBoJB5O3xo3l0odEl-36" vertex="1">
          <mxGeometry width="27" height="30" as="geometry">
            <mxRectangle width="27" height="30" as="alternateBounds" />
          </mxGeometry>
        </mxCell>
        <mxCell id="G82BBoJB5O3xo3l0odEl-38" value="Value 3" style="shape=partialRectangle;html=1;whiteSpace=wrap;connectable=0;fillColor=none;top=0;left=0;bottom=0;right=0;align=left;spacingLeft=6;overflow=hidden;strokeColor=inherit;fontSize=16;" parent="G82BBoJB5O3xo3l0odEl-36" vertex="1">
          <mxGeometry x="27" width="93" height="30" as="geometry">
            <mxRectangle width="93" height="30" as="alternateBounds" />
          </mxGeometry>
        </mxCell>
        <mxCell id="G82BBoJB5O3xo3l0odEl-39" value="" style="shape=flexArrow;endArrow=classic;html=1;rounded=0;fontSize=20;exitX=1;exitY=0.5;exitDx=0;exitDy=0;" parent="1" source="G82BBoJB5O3xo3l0odEl-33" target="G82BBoJB5O3xo3l0odEl-15" edge="1">
          <mxGeometry width="50" height="50" relative="1" as="geometry">
            <mxPoint x="390" y="600" as="sourcePoint" />
            <mxPoint x="440" y="550" as="targetPoint" />
          </mxGeometry>
        </mxCell>
        <mxCell id="G82BBoJB5O3xo3l0odEl-40" value="Table Target" style="shape=table;startSize=30;container=1;collapsible=0;childLayout=tableLayout;fixedRows=1;rowLines=0;fontStyle=0;strokeColor=default;fontSize=16;" parent="1" vertex="1">
          <mxGeometry x="420" y="540" width="120" height="120" as="geometry" />
        </mxCell>
        <mxCell id="G82BBoJB5O3xo3l0odEl-41" value="" style="shape=tableRow;horizontal=0;startSize=0;swimlaneHead=0;swimlaneBody=0;top=0;left=0;bottom=0;right=0;collapsible=0;dropTarget=0;fillColor=none;points=[[0,0.5],[1,0.5]];portConstraint=eastwest;strokeColor=inherit;fontSize=16;" parent="G82BBoJB5O3xo3l0odEl-40" vertex="1">
          <mxGeometry y="30" width="120" height="30" as="geometry" />
        </mxCell>
        <mxCell id="G82BBoJB5O3xo3l0odEl-42" value="1" style="shape=partialRectangle;html=1;whiteSpace=wrap;connectable=0;fillColor=none;top=0;left=0;bottom=0;right=0;overflow=hidden;pointerEvents=1;strokeColor=inherit;fontSize=16;" parent="G82BBoJB5O3xo3l0odEl-41" vertex="1">
          <mxGeometry width="27" height="30" as="geometry">
            <mxRectangle width="27" height="30" as="alternateBounds" />
          </mxGeometry>
        </mxCell>
        <mxCell id="G82BBoJB5O3xo3l0odEl-43" value="Value 1" style="shape=partialRectangle;html=1;whiteSpace=wrap;connectable=0;fillColor=none;top=0;left=0;bottom=0;right=0;align=left;spacingLeft=6;overflow=hidden;strokeColor=inherit;fontSize=16;" parent="G82BBoJB5O3xo3l0odEl-41" vertex="1">
          <mxGeometry x="27" width="93" height="30" as="geometry">
            <mxRectangle width="93" height="30" as="alternateBounds" />
          </mxGeometry>
        </mxCell>
        <mxCell id="G82BBoJB5O3xo3l0odEl-44" value="" style="shape=tableRow;horizontal=0;startSize=0;swimlaneHead=0;swimlaneBody=0;top=0;left=0;bottom=0;right=0;collapsible=0;dropTarget=0;fillColor=none;points=[[0,0.5],[1,0.5]];portConstraint=eastwest;strokeColor=inherit;fontSize=16;" parent="G82BBoJB5O3xo3l0odEl-40" vertex="1">
          <mxGeometry y="60" width="120" height="30" as="geometry" />
        </mxCell>
        <mxCell id="G82BBoJB5O3xo3l0odEl-45" value="2" style="shape=partialRectangle;html=1;whiteSpace=wrap;connectable=0;fillColor=none;top=0;left=0;bottom=0;right=0;overflow=hidden;strokeColor=inherit;fontSize=16;" parent="G82BBoJB5O3xo3l0odEl-44" vertex="1">
          <mxGeometry width="27" height="30" as="geometry">
            <mxRectangle width="27" height="30" as="alternateBounds" />
          </mxGeometry>
        </mxCell>
        <mxCell id="G82BBoJB5O3xo3l0odEl-46" value="Value 2" style="shape=partialRectangle;html=1;whiteSpace=wrap;connectable=0;fillColor=none;top=0;left=0;bottom=0;right=0;align=left;spacingLeft=6;overflow=hidden;strokeColor=inherit;fontSize=16;" parent="G82BBoJB5O3xo3l0odEl-44" vertex="1">
          <mxGeometry x="27" width="93" height="30" as="geometry">
            <mxRectangle width="93" height="30" as="alternateBounds" />
          </mxGeometry>
        </mxCell>
        <mxCell id="G82BBoJB5O3xo3l0odEl-47" value="" style="shape=tableRow;horizontal=0;startSize=0;swimlaneHead=0;swimlaneBody=0;top=0;left=0;bottom=0;right=0;collapsible=0;dropTarget=0;fillColor=none;points=[[0,0.5],[1,0.5]];portConstraint=eastwest;strokeColor=inherit;fontSize=16;" parent="G82BBoJB5O3xo3l0odEl-40" vertex="1">
          <mxGeometry y="90" width="120" height="30" as="geometry" />
        </mxCell>
        <mxCell id="G82BBoJB5O3xo3l0odEl-48" value="3" style="shape=partialRectangle;html=1;whiteSpace=wrap;connectable=0;fillColor=none;top=0;left=0;bottom=0;right=0;overflow=hidden;strokeColor=inherit;fontSize=16;" parent="G82BBoJB5O3xo3l0odEl-47" vertex="1">
          <mxGeometry width="27" height="30" as="geometry">
            <mxRectangle width="27" height="30" as="alternateBounds" />
          </mxGeometry>
        </mxCell>
        <mxCell id="G82BBoJB5O3xo3l0odEl-49" value="Value 3" style="shape=partialRectangle;html=1;whiteSpace=wrap;connectable=0;fillColor=none;top=0;left=0;bottom=0;right=0;align=left;spacingLeft=6;overflow=hidden;strokeColor=inherit;fontSize=16;" parent="G82BBoJB5O3xo3l0odEl-47" vertex="1">
          <mxGeometry x="27" width="93" height="30" as="geometry">
            <mxRectangle width="93" height="30" as="alternateBounds" />
          </mxGeometry>
        </mxCell>
        <mxCell id="G82BBoJB5O3xo3l0odEl-50" value="" style="shape=flexArrow;endArrow=classic;html=1;rounded=0;fontSize=20;exitX=1;exitY=0.5;exitDx=0;exitDy=0;entryX=0;entryY=0.5;entryDx=0;entryDy=0;" parent="1" target="G82BBoJB5O3xo3l0odEl-44" edge="1">
          <mxGeometry width="50" height="50" relative="1" as="geometry">
            <mxPoint x="315" y="614.5" as="sourcePoint" />
            <mxPoint x="365" y="614.5" as="targetPoint" />
          </mxGeometry>
        </mxCell>
        <mxCell id="G82BBoJB5O3xo3l0odEl-51" value="transformation View" style="shape=folder;html=1;tabWidth=80;tabHeight=40;tabPosition=left;align=left;verticalAlign=top;spacingLeft=10;whiteSpace=wrap;" parent="1" vertex="1">
          <mxGeometry x="120" y="830" width="510" height="270" as="geometry" />
        </mxCell>
        <mxCell id="G82BBoJB5O3xo3l0odEl-52" value="&lt;h1&gt;&lt;font style=&quot;font-size: 29px;&quot;&gt;Transformation View&lt;/font&gt;&lt;/h1&gt;&lt;p&gt;Executie van TV werkt als volgt.&lt;/p&gt;&lt;p&gt;View heeft een query, waarbij er 2 attributen noodzakelijk zijn.&amp;nbsp; Technical Key (MD5), en een actie Insert, Update, Delete.&amp;nbsp; Deze wordt toegepast op Target Table. De inhoud van de query, wordt toegepast naar de Target Table.&amp;nbsp;&lt;/p&gt;" style="text;html=1;strokeColor=none;fillColor=none;spacing=5;spacingTop=-20;whiteSpace=wrap;overflow=hidden;rounded=0;fontSize=20;" parent="1" vertex="1">
          <mxGeometry x="120" y="840" width="510" height="260" as="geometry" />
        </mxCell>
      </root>
    </mxGraphModel>
  </diagram>
</mxfile>
